<?xml version="1.0" standalone="yes"?>

<svg version="1.1" viewBox="0.0 0.0 3304.0 1384.0" fill="none" stroke="none" stroke-linecap="square" stroke-miterlimit="10" xmlns="http://www.w3.org/2000/svg" xmlns:xlink="http://www.w3.org/1999/xlink"><clipPath id="p.0"><path d="m0 0l3304.0 0l0 1384.0l-3304.0 0l0 -1384.0z" clip-rule="nonzero"></path></clipPath><g clip-path="url(#p.0)"><path fill="#000000" fill-opacity="0.0" d="m0 0l3304.0 0l0 1384.0l-3304.0 0z" fill-rule="nonzero"></path><path fill="#3d85c6" d="m278.0707 1123.6895l522.31494 -860.94495l522.315 860.94495z" fill-rule="nonzero"></path><path stroke="#000000" stroke-width="2.0" stroke-linejoin="round" stroke-linecap="butt" d="m278.0707 1123.6895l522.31494 -860.94495l522.315 860.94495z" fill-rule="nonzero"></path><path fill="#3d85c6" d="m901.28204 792.80505l-100.897644 166.33069l-100.897644 -166.33069z" fill-rule="nonzero"></path><path stroke="#000000" stroke-width="2.0" stroke-linejoin="round" stroke-linecap="butt" d="m901.28204 792.80505l-100.897644 166.33069l-100.897644 -166.33069z" fill-rule="nonzero"></path><path fill="#3d85c6" d="m800.3832 959.8583l398.9922 103.17322l-297.83466 -269.21783z" fill-rule="nonzero"></path><path stroke="#000000" stroke-width="2.0" stroke-linejoin="round" stroke-linecap="butt" d="m800.3832 959.8583l398.9922 103.17322l-297.83466 -269.21783z" fill-rule="nonzero"></path><path fill="#cfe2f3" d="m396.958 1063.4357l802.82153 0.80578613l-398.18634 -103.979004z" fill-rule="nonzero"></path><path stroke="#000000" stroke-width="2.0" stroke-linejoin="round" stroke-linecap="butt" d="m396.958 1063.4357l802.82153 0.80578613l-398.18634 -103.979004z" fill-rule="nonzero"></path><path fill="#3d85c6" d="m798.36743 404.09186l-401.40942 659.3438l303.47504 -270.02625z" fill-rule="nonzero"></path><path stroke="#000000" stroke-width="2.0" stroke-linejoin="round" stroke-linecap="butt" d="m798.36743 404.09186l-401.40942 659.3438l303.47504 -270.02625z" fill-rule="nonzero"></path><path fill="#3d85c6" d="m700.0315 793.0079l-303.0735 270.83197l403.82678 -104.38318z" fill-rule="nonzero"></path><path stroke="#000000" stroke-width="2.0" stroke-linejoin="round" stroke-linecap="butt" d="m700.0315 793.0079l-303.0735 270.83197l403.82678 -104.38318z" fill-rule="nonzero"></path><path fill="#cfe2f3" d="m799.57745 403.68765l-98.33862 389.72177l200.30188 -0.19946289z" fill-rule="nonzero"></path><path stroke="#000000" stroke-width="2.0" stroke-linejoin="round" stroke-linecap="butt" d="m799.57745 403.68765l-98.33862 389.72177l200.30188 -0.19946289z" fill-rule="nonzero"></path><path fill="#3d85c6" d="m799.57745 402.8819l101.96326 391.73755l296.6247 267.60626z" fill-rule="nonzero"></path><path stroke="#000000" stroke-width="2.0" stroke-linejoin="round" stroke-linecap="butt" d="m799.57745 402.8819l101.96326 391.73755l296.6247 267.60626z" fill-rule="nonzero"></path><path fill="#3d85c6" d="m1974.0707 1123.6895l522.31506 -860.94495l522.31494 860.94495z" fill-rule="nonzero"></path><path stroke="#000000" stroke-width="2.0" stroke-linejoin="round" stroke-linecap="butt" d="m1974.0707 1123.6895l522.31506 -860.94495l522.31494 860.94495z" fill-rule="nonzero"></path><path fill="#3d85c6" d="m2597.282 792.80505l-100.897705 166.33069l-100.89746 -166.33069z" fill-rule="nonzero"></path><path stroke="#000000" stroke-width="2.0" stroke-linejoin="round" stroke-linecap="butt" d="m2597.282 792.80505l-100.897705 166.33069l-100.89746 -166.33069z" fill-rule="nonzero"></path><path fill="#cfe2f3" d="m2496.3833 959.8583l398.99194 103.17322l-297.83447 -269.21783z" fill-rule="nonzero"></path><path stroke="#000000" stroke-width="2.0" stroke-linejoin="round" stroke-linecap="butt" d="m2496.3833 959.8583l398.99194 103.17322l-297.83447 -269.21783z" fill-rule="nonzero"></path><path fill="#3d85c6" d="m2092.958 1063.4357l802.82153 0.80578613l-398.18628 -103.979004z" fill-rule="nonzero"></path><path stroke="#000000" stroke-width="2.0" stroke-linejoin="round" stroke-linecap="butt" d="m2092.958 1063.4357l802.82153 0.80578613l-398.18628 -103.979004z" fill-rule="nonzero"></path><path fill="#3d85c6" d="m2494.3674 404.09186l-401.40942 659.3438l303.4751 -270.02625z" fill-rule="nonzero"></path><path stroke="#000000" stroke-width="2.0" stroke-linejoin="round" stroke-linecap="butt" d="m2494.3674 404.09186l-401.40942 659.3438l303.4751 -270.02625z" fill-rule="nonzero"></path><path fill="#cfe2f3" d="m2396.0315 793.0079l-303.0735 270.83197l403.82666 -104.38318z" fill-rule="nonzero"></path><path stroke="#000000" stroke-width="2.0" stroke-linejoin="round" stroke-linecap="butt" d="m2396.0315 793.0079l-303.0735 270.83197l403.82666 -104.38318z" fill-rule="nonzero"></path><path fill="#3d85c6" d="m2495.5774 403.68765l-98.33862 389.72177l200.302 -0.19946289z" fill-rule="nonzero"></path><path stroke="#000000" stroke-width="2.0" stroke-linejoin="round" stroke-linecap="butt" d="m2495.5774 403.68765l-98.33862 389.72177l200.302 -0.19946289z" fill-rule="nonzero"></path><path fill="#3d85c6" d="m2495.5774 402.8819l101.96338 391.73755l296.6245 267.60626z" fill-rule="nonzero"></path><path stroke="#000000" stroke-width="2.0" stroke-linejoin="round" stroke-linecap="butt" d="m2495.5774 402.8819l101.96338 391.73755l296.6245 267.60626z" fill-rule="nonzero"></path></g></svg>

