<?xml version="1.0" standalone="yes"?>

<svg version="1.1" viewBox="0.0 0.0 9600.0 7680.0" fill="none" stroke="none" stroke-linecap="square" stroke-miterlimit="10" xmlns="http://www.w3.org/2000/svg" xmlns:xlink="http://www.w3.org/1999/xlink"><clipPath id="p.0"><path d="m0 0l9600.0 0l0 7680.0l-9600.0 0l0 -7680.0z" clip-rule="nonzero"></path></clipPath><g clip-path="url(#p.0)"><path fill="#000000" fill-opacity="0.0" d="m0 0l9600.0 0l0 7680.0l-9600.0 0z" fill-rule="nonzero"></path><path fill="#3d85c6" d="m862.07074 6877.6704l522.314 -860.94775l522.31396 860.94775z" fill-rule="nonzero"></path><path stroke="#000000" stroke-width="2.0" stroke-linejoin="round" stroke-linecap="butt" d="m862.07074 6877.6704l522.314 -860.94775l522.31396 860.94775z" fill-rule="nonzero"></path><path fill="#3d85c6" d="m980.92505 6817.735l401.34753 -661.57666l401.3474 661.57666z" fill-rule="nonzero"></path><path stroke="#000000" stroke-width="2.0" stroke-linejoin="round" stroke-linecap="butt" d="m980.92505 6817.735l401.34753 -661.57666l401.3474 661.57666z" fill-rule="nonzero"></path><path fill="#cfe2f3" d="m981.97644 6816.6997l401.45203 -221.67334l-1.1560059 -434.72266z" fill-rule="nonzero"></path><path stroke="#000000" stroke-width="2.0" stroke-linejoin="round" stroke-linecap="butt" d="m981.97644 6816.6997l401.45203 -221.67334l-1.1560059 -434.72266z" fill-rule="nonzero"></path><path fill="#cfe2f3" d="m983.8698 6816.0786l399.6634 -221.05225l398.8213 222.29932z" fill-rule="nonzero"></path><path stroke="#000000" stroke-width="2.0" stroke-linejoin="round" stroke-linecap="butt" d="m983.8698 6816.0786l399.6634 -221.05225l398.8213 222.29932z" fill-rule="nonzero"></path><path fill="#cfe2f3" d="m1384.3752 6157.805l-0.842041 436.4917l398.8213 223.02881z" fill-rule="nonzero"></path><path stroke="#000000" stroke-width="2.0" stroke-linejoin="round" stroke-linecap="butt" d="m1384.3752 6157.805l-0.842041 436.4917l398.8213 223.02881z" fill-rule="nonzero"></path><path fill="#cfe2f3" d="m862.07074 5837.1343l522.314 -860.94775l522.31396 860.94775z" fill-rule="nonzero"></path><path stroke="#000000" stroke-width="2.0" stroke-linejoin="round" stroke-linecap="butt" d="m862.07074 5837.1343l522.314 -860.94775l522.31396 860.94775z" fill-rule="nonzero"></path><path fill="#cfe2f3" d="m980.92505 5777.1987l401.34753 -661.57715l401.3474 661.57715z" fill-rule="nonzero"></path><path stroke="#000000" stroke-width="2.0" stroke-linejoin="round" stroke-linecap="butt" d="m980.92505 5777.1987l401.34753 -661.57715l401.3474 661.57715z" fill-rule="nonzero"></path><path fill="#3d85c6" d="m981.97644 5776.1636l401.45203 -221.67383l-1.1560059 -434.72266z" fill-rule="nonzero"></path><path stroke="#000000" stroke-width="2.0" stroke-linejoin="round" stroke-linecap="butt" d="m981.97644 5776.1636l401.45203 -221.67383l-1.1560059 -434.72266z" fill-rule="nonzero"></path><path fill="#cfe2f3" d="m983.8698 5775.5425l399.6634 -221.05273l398.8213 222.2998z" fill-rule="nonzero"></path><path stroke="#000000" stroke-width="2.0" stroke-linejoin="round" stroke-linecap="butt" d="m983.8698 5775.5425l399.6634 -221.05273l398.8213 222.2998z" fill-rule="nonzero"></path><path fill="#cfe2f3" d="m1384.3752 5117.2686l-0.842041 436.4922l398.8213 223.02881z" fill-rule="nonzero"></path><path stroke="#000000" stroke-width="2.0" stroke-linejoin="round" stroke-linecap="butt" d="m1384.3752 5117.2686l-0.842041 436.4922l398.8213 223.02881z" fill-rule="nonzero"></path><path fill="#cfe2f3" d="m862.07074 4812.2285l522.314 -860.9475l522.31396 860.9475z" fill-rule="nonzero"></path><path stroke="#000000" stroke-width="2.0" stroke-linejoin="round" stroke-linecap="butt" d="m862.07074 4812.2285l522.314 -860.9475l522.31396 860.9475z" fill-rule="nonzero"></path><path fill="#cfe2f3" d="m980.92505 4752.2935l401.34753 -661.57715l401.3474 661.57715z" fill-rule="nonzero"></path><path stroke="#000000" stroke-width="2.0" stroke-linejoin="round" stroke-linecap="butt" d="m980.92505 4752.2935l401.34753 -661.57715l401.3474 661.57715z" fill-rule="nonzero"></path><path fill="#cfe2f3" d="m981.97644 4751.2583l401.45203 -221.67383l-1.1560059 -434.7229z" fill-rule="nonzero"></path><path stroke="#000000" stroke-width="2.0" stroke-linejoin="round" stroke-linecap="butt" d="m981.97644 4751.2583l401.45203 -221.67383l-1.1560059 -434.7229z" fill-rule="nonzero"></path><path fill="#cfe2f3" d="m983.8698 4750.637l399.6634 -221.05273l398.8213 222.29932z" fill-rule="nonzero"></path><path stroke="#000000" stroke-width="2.0" stroke-linejoin="round" stroke-linecap="butt" d="m983.8698 4750.637l399.6634 -221.05273l398.8213 222.29932z" fill-rule="nonzero"></path><path fill="#3d85c6" d="m1384.3752 4092.3633l-0.842041 436.4917l398.8213 223.02881z" fill-rule="nonzero"></path><path stroke="#000000" stroke-width="2.0" stroke-linejoin="round" stroke-linecap="butt" d="m1384.3752 4092.3633l-0.842041 436.4917l398.8213 223.02881z" fill-rule="nonzero"></path><path fill="#cfe2f3" d="m862.07074 3771.6924l522.314 -860.94775l522.31396 860.94775z" fill-rule="nonzero"></path><path stroke="#000000" stroke-width="2.0" stroke-linejoin="round" stroke-linecap="butt" d="m862.07074 3771.6924l522.314 -860.94775l522.31396 860.94775z" fill-rule="nonzero"></path><path fill="#cfe2f3" d="m980.92505 3711.7568l401.34753 -661.5769l401.3474 661.5769z" fill-rule="nonzero"></path><path stroke="#000000" stroke-width="2.0" stroke-linejoin="round" stroke-linecap="butt" d="m980.92505 3711.7568l401.34753 -661.5769l401.3474 661.5769z" fill-rule="nonzero"></path><path fill="#cfe2f3" d="m981.97644 3710.7217l401.45203 -221.67358l-1.1560059 -434.7229z" fill-rule="nonzero"></path><path stroke="#000000" stroke-width="2.0" stroke-linejoin="round" stroke-linecap="butt" d="m981.97644 3710.7217l401.45203 -221.67358l-1.1560059 -434.7229z" fill-rule="nonzero"></path><path fill="#3d85c6" d="m983.8698 3710.1006l399.6634 -221.05249l398.8213 222.29932z" fill-rule="nonzero"></path><path stroke="#000000" stroke-width="2.0" stroke-linejoin="round" stroke-linecap="butt" d="m983.8698 3710.1006l399.6634 -221.05249l398.8213 222.29932z" fill-rule="nonzero"></path><path fill="#cfe2f3" d="m1384.3752 3051.827l-0.842041 436.4917l398.8213 223.02881z" fill-rule="nonzero"></path><path stroke="#000000" stroke-width="2.0" stroke-linejoin="round" stroke-linecap="butt" d="m1384.3752 3051.827l-0.842041 436.4917l398.8213 223.02881z" fill-rule="nonzero"></path><path fill="#3d85c6" d="m3131.9475 5837.1343l522.31396 -860.94775l522.3142 860.94775z" fill-rule="nonzero"></path><path stroke="#000000" stroke-width="2.0" stroke-linejoin="round" stroke-linecap="butt" d="m3131.9475 5837.1343l522.31396 -860.94775l522.3142 860.94775z" fill-rule="nonzero"></path><path fill="#cfe2f3" d="m3250.8018 5777.1987l401.34766 -661.57715l401.3474 661.57715z" fill-rule="nonzero"></path><path stroke="#000000" stroke-width="2.0" stroke-linejoin="round" stroke-linecap="butt" d="m3250.8018 5777.1987l401.34766 -661.57715l401.3474 661.57715z" fill-rule="nonzero"></path><path fill="#cfe2f3" d="m3251.8533 5776.1636l401.45215 -221.67383l-1.1560059 -434.72266z" fill-rule="nonzero"></path><path stroke="#000000" stroke-width="2.0" stroke-linejoin="round" stroke-linecap="butt" d="m3251.8533 5776.1636l401.45215 -221.67383l-1.1560059 -434.72266z" fill-rule="nonzero"></path><path fill="#cfe2f3" d="m3253.7466 5775.5425l399.66333 -221.05273l398.8213 222.2998z" fill-rule="nonzero"></path><path stroke="#000000" stroke-width="2.0" stroke-linejoin="round" stroke-linecap="butt" d="m3253.7466 5775.5425l399.66333 -221.05273l398.8213 222.2998z" fill-rule="nonzero"></path><path fill="#3d85c6" d="m3654.252 5117.2686l-0.842041 436.4922l398.8213 223.02881z" fill-rule="nonzero"></path><path stroke="#000000" stroke-width="2.0" stroke-linejoin="round" stroke-linecap="butt" d="m3654.252 5117.2686l-0.842041 436.4922l398.8213 223.02881z" fill-rule="nonzero"></path><path fill="#cfe2f3" d="m3131.9475 4812.2285l522.31396 -860.9475l522.3142 860.9475z" fill-rule="nonzero"></path><path stroke="#000000" stroke-width="2.0" stroke-linejoin="round" stroke-linecap="butt" d="m3131.9475 4812.2285l522.31396 -860.9475l522.3142 860.9475z" fill-rule="nonzero"></path><path fill="#cfe2f3" d="m3250.8018 4752.2935l401.34766 -661.57715l401.3474 661.57715z" fill-rule="nonzero"></path><path stroke="#000000" stroke-width="2.0" stroke-linejoin="round" stroke-linecap="butt" d="m3250.8018 4752.2935l401.34766 -661.57715l401.3474 661.57715z" fill-rule="nonzero"></path><path fill="#3d85c6" d="m3251.8533 4751.2583l401.45215 -221.67383l-1.1560059 -434.7229z" fill-rule="nonzero"></path><path stroke="#000000" stroke-width="2.0" stroke-linejoin="round" stroke-linecap="butt" d="m3251.8533 4751.2583l401.45215 -221.67383l-1.1560059 -434.7229z" fill-rule="nonzero"></path><path fill="#cfe2f3" d="m3253.7466 4750.637l399.66333 -221.05273l398.8213 222.29932z" fill-rule="nonzero"></path><path stroke="#000000" stroke-width="2.0" stroke-linejoin="round" stroke-linecap="butt" d="m3253.7466 4750.637l399.66333 -221.05273l398.8213 222.29932z" fill-rule="nonzero"></path><path fill="#3d85c6" d="m3654.252 4092.3633l-0.842041 436.4917l398.8213 223.02881z" fill-rule="nonzero"></path><path stroke="#000000" stroke-width="2.0" stroke-linejoin="round" stroke-linecap="butt" d="m3654.252 4092.3633l-0.842041 436.4917l398.8213 223.02881z" fill-rule="nonzero"></path><path fill="#3d85c6" d="m3131.9475 6877.6704l522.31396 -860.94775l522.3142 860.94775z" fill-rule="nonzero"></path><path stroke="#000000" stroke-width="2.0" stroke-linejoin="round" stroke-linecap="butt" d="m3131.9475 6877.6704l522.31396 -860.94775l522.3142 860.94775z" fill-rule="nonzero"></path><path fill="#cfe2f3" d="m3250.8018 6817.735l401.34766 -661.57666l401.3474 661.57666z" fill-rule="nonzero"></path><path stroke="#000000" stroke-width="2.0" stroke-linejoin="round" stroke-linecap="butt" d="m3250.8018 6817.735l401.34766 -661.57666l401.3474 661.57666z" fill-rule="nonzero"></path><path fill="#3d85c6" d="m3251.8533 6816.6997l401.45215 -221.67334l-1.1560059 -434.72266z" fill-rule="nonzero"></path><path stroke="#000000" stroke-width="2.0" stroke-linejoin="round" stroke-linecap="butt" d="m3251.8533 6816.6997l401.45215 -221.67334l-1.1560059 -434.72266z" fill-rule="nonzero"></path><path fill="#cfe2f3" d="m3253.7466 6816.0786l399.66333 -221.05225l398.8213 222.29932z" fill-rule="nonzero"></path><path stroke="#000000" stroke-width="2.0" stroke-linejoin="round" stroke-linecap="butt" d="m3253.7466 6816.0786l399.66333 -221.05225l398.8213 222.29932z" fill-rule="nonzero"></path><path fill="#cfe2f3" d="m3654.252 6157.805l-0.842041 436.4917l398.8213 223.02881z" fill-rule="nonzero"></path><path stroke="#000000" stroke-width="2.0" stroke-linejoin="round" stroke-linecap="butt" d="m3654.252 6157.805l-0.842041 436.4917l398.8213 223.02881z" fill-rule="nonzero"></path><path fill="#3d85c6" d="m3131.9475 3771.6924l522.31396 -860.94775l522.3142 860.94775z" fill-rule="nonzero"></path><path stroke="#000000" stroke-width="2.0" stroke-linejoin="round" stroke-linecap="butt" d="m3131.9475 3771.6924l522.31396 -860.94775l522.3142 860.94775z" fill-rule="nonzero"></path><path fill="#cfe2f3" d="m3250.8018 3711.7568l401.34766 -661.5769l401.3474 661.5769z" fill-rule="nonzero"></path><path stroke="#000000" stroke-width="2.0" stroke-linejoin="round" stroke-linecap="butt" d="m3250.8018 3711.7568l401.34766 -661.5769l401.3474 661.5769z" fill-rule="nonzero"></path><path fill="#cfe2f3" d="m3251.8533 3710.7217l401.45215 -221.67358l-1.1560059 -434.7229z" fill-rule="nonzero"></path><path stroke="#000000" stroke-width="2.0" stroke-linejoin="round" stroke-linecap="butt" d="m3251.8533 3710.7217l401.45215 -221.67358l-1.1560059 -434.7229z" fill-rule="nonzero"></path><path fill="#3d85c6" d="m3253.7466 3710.1006l399.66333 -221.05249l398.8213 222.29932z" fill-rule="nonzero"></path><path stroke="#000000" stroke-width="2.0" stroke-linejoin="round" stroke-linecap="butt" d="m3253.7466 3710.1006l399.66333 -221.05249l398.8213 222.29932z" fill-rule="nonzero"></path><path fill="#cfe2f3" d="m3654.252 3051.827l-0.842041 436.4917l398.8213 223.02881z" fill-rule="nonzero"></path><path stroke="#000000" stroke-width="2.0" stroke-linejoin="round" stroke-linecap="butt" d="m3654.252 3051.827l-0.842041 436.4917l398.8213 223.02881z" fill-rule="nonzero"></path><path fill="#cfe2f3" d="m3131.9475 2709.7014l522.31396 -860.94775l522.3142 860.94775z" fill-rule="nonzero"></path><path stroke="#000000" stroke-width="2.0" stroke-linejoin="round" stroke-linecap="butt" d="m3131.9475 2709.7014l522.31396 -860.94775l522.3142 860.94775z" fill-rule="nonzero"></path><path fill="#cfe2f3" d="m3250.8018 2649.7659l401.34766 -661.5768l401.3474 661.5768z" fill-rule="nonzero"></path><path stroke="#000000" stroke-width="2.0" stroke-linejoin="round" stroke-linecap="butt" d="m3250.8018 2649.7659l401.34766 -661.5768l401.3474 661.5768z" fill-rule="nonzero"></path><path fill="#3d85c6" d="m3251.8533 2648.7307l401.45215 -221.67358l-1.1560059 -434.72278z" fill-rule="nonzero"></path><path stroke="#000000" stroke-width="2.0" stroke-linejoin="round" stroke-linecap="butt" d="m3251.8533 2648.7307l401.45215 -221.67358l-1.1560059 -434.72278z" fill-rule="nonzero"></path><path fill="#3d85c6" d="m3253.7466 2648.1096l399.66333 -221.05249l398.8213 222.29956z" fill-rule="nonzero"></path><path stroke="#000000" stroke-width="2.0" stroke-linejoin="round" stroke-linecap="butt" d="m3253.7466 2648.1096l399.66333 -221.05249l398.8213 222.29956z" fill-rule="nonzero"></path><path fill="#cfe2f3" d="m3654.252 1989.8359l-0.842041 436.49194l398.8213 223.02881z" fill-rule="nonzero"></path><path stroke="#000000" stroke-width="2.0" stroke-linejoin="round" stroke-linecap="butt" d="m3654.252 1989.8359l-0.842041 436.49194l398.8213 223.02881z" fill-rule="nonzero"></path><path fill="#cfe2f3" d="m3131.9475 1669.165l522.31396 -860.9477l522.3142 860.9477z" fill-rule="nonzero"></path><path stroke="#000000" stroke-width="2.0" stroke-linejoin="round" stroke-linecap="butt" d="m3131.9475 1669.165l522.31396 -860.9477l522.3142 860.9477z" fill-rule="nonzero"></path><path fill="#cfe2f3" d="m3250.8018 1609.2296l401.34766 -661.5769l401.3474 661.5769z" fill-rule="nonzero"></path><path stroke="#000000" stroke-width="2.0" stroke-linejoin="round" stroke-linecap="butt" d="m3250.8018 1609.2296l401.34766 -661.5769l401.3474 661.5769z" fill-rule="nonzero"></path><path fill="#cfe2f3" d="m3251.8533 1608.1945l401.45215 -221.6737l-1.1560059 -434.72272z" fill-rule="nonzero"></path><path stroke="#000000" stroke-width="2.0" stroke-linejoin="round" stroke-linecap="butt" d="m3251.8533 1608.1945l401.45215 -221.6737l-1.1560059 -434.72272z" fill-rule="nonzero"></path><path fill="#3d85c6" d="m3253.7466 1607.5734l399.66333 -221.05261l398.8213 222.29944z" fill-rule="nonzero"></path><path stroke="#000000" stroke-width="2.0" stroke-linejoin="round" stroke-linecap="butt" d="m3253.7466 1607.5734l399.66333 -221.05261l398.8213 222.29944z" fill-rule="nonzero"></path><path fill="#3d85c6" d="m3654.252 949.29956l-0.842041 436.49182l398.8213 223.02881z" fill-rule="nonzero"></path><path stroke="#000000" stroke-width="2.0" stroke-linejoin="round" stroke-linecap="butt" d="m3654.252 949.29956l-0.842041 436.49182l398.8213 223.02881z" fill-rule="nonzero"></path><path fill="#3d85c6" d="m5401.824 5837.1343l522.31396 -860.94775l522.31396 860.94775z" fill-rule="nonzero"></path><path stroke="#000000" stroke-width="2.0" stroke-linejoin="round" stroke-linecap="butt" d="m5401.824 5837.1343l522.31396 -860.94775l522.31396 860.94775z" fill-rule="nonzero"></path><path fill="#3d85c6" d="m5520.6787 5777.1987l401.34717 -661.57715l401.34766 661.57715z" fill-rule="nonzero"></path><path stroke="#000000" stroke-width="2.0" stroke-linejoin="round" stroke-linecap="butt" d="m5520.6787 5777.1987l401.34717 -661.57715l401.34766 661.57715z" fill-rule="nonzero"></path><path fill="#cfe2f3" d="m5521.73 5776.1636l401.45215 -221.67383l-1.15625 -434.72266z" fill-rule="nonzero"></path><path stroke="#000000" stroke-width="2.0" stroke-linejoin="round" stroke-linecap="butt" d="m5521.73 5776.1636l401.45215 -221.67383l-1.15625 -434.72266z" fill-rule="nonzero"></path><path fill="#3d85c6" d="m5523.6235 5775.5425l399.6631 -221.05273l398.8213 222.2998z" fill-rule="nonzero"></path><path stroke="#000000" stroke-width="2.0" stroke-linejoin="round" stroke-linecap="butt" d="m5523.6235 5775.5425l399.6631 -221.05273l398.8213 222.2998z" fill-rule="nonzero"></path><path fill="#3d85c6" d="m5924.129 5117.2686l-0.84228516 436.4922l398.8213 223.02881z" fill-rule="nonzero"></path><path stroke="#000000" stroke-width="2.0" stroke-linejoin="round" stroke-linecap="butt" d="m5924.129 5117.2686l-0.84228516 436.4922l398.8213 223.02881z" fill-rule="nonzero"></path><path fill="#3d85c6" d="m5401.824 4812.2285l522.31396 -860.9475l522.31396 860.9475z" fill-rule="nonzero"></path><path stroke="#000000" stroke-width="2.0" stroke-linejoin="round" stroke-linecap="butt" d="m5401.824 4812.2285l522.31396 -860.9475l522.31396 860.9475z" fill-rule="nonzero"></path><path fill="#3d85c6" d="m5520.6787 4752.2935l401.34717 -661.57715l401.34766 661.57715z" fill-rule="nonzero"></path><path stroke="#000000" stroke-width="2.0" stroke-linejoin="round" stroke-linecap="butt" d="m5520.6787 4752.2935l401.34717 -661.57715l401.34766 661.57715z" fill-rule="nonzero"></path><path fill="#3d85c6" d="m5521.73 4751.2583l401.45215 -221.67383l-1.15625 -434.7229z" fill-rule="nonzero"></path><path stroke="#000000" stroke-width="2.0" stroke-linejoin="round" stroke-linecap="butt" d="m5521.73 4751.2583l401.45215 -221.67383l-1.15625 -434.7229z" fill-rule="nonzero"></path><path fill="#3d85c6" d="m5523.6235 4750.637l399.6631 -221.05273l398.8213 222.29932z" fill-rule="nonzero"></path><path stroke="#000000" stroke-width="2.0" stroke-linejoin="round" stroke-linecap="butt" d="m5523.6235 4750.637l399.6631 -221.05273l398.8213 222.29932z" fill-rule="nonzero"></path><path fill="#cfe2f3" d="m5924.129 4092.3633l-0.84228516 436.4917l398.8213 223.02881z" fill-rule="nonzero"></path><path stroke="#000000" stroke-width="2.0" stroke-linejoin="round" stroke-linecap="butt" d="m5924.129 4092.3633l-0.84228516 436.4917l398.8213 223.02881z" fill-rule="nonzero"></path><path fill="#cfe2f3" d="m5401.824 6877.6704l522.31396 -860.94775l522.31396 860.94775z" fill-rule="nonzero"></path><path stroke="#000000" stroke-width="2.0" stroke-linejoin="round" stroke-linecap="butt" d="m5401.824 6877.6704l522.31396 -860.94775l522.31396 860.94775z" fill-rule="nonzero"></path><path fill="#3d85c6" d="m5520.6787 6817.735l401.34717 -661.57666l401.34766 661.57666z" fill-rule="nonzero"></path><path stroke="#000000" stroke-width="2.0" stroke-linejoin="round" stroke-linecap="butt" d="m5520.6787 6817.735l401.34717 -661.57666l401.34766 661.57666z" fill-rule="nonzero"></path><path fill="#3d85c6" d="m5521.73 6816.6997l401.45215 -221.67334l-1.15625 -434.72266z" fill-rule="nonzero"></path><path stroke="#000000" stroke-width="2.0" stroke-linejoin="round" stroke-linecap="butt" d="m5521.73 6816.6997l401.45215 -221.67334l-1.15625 -434.72266z" fill-rule="nonzero"></path><path fill="#3d85c6" d="m5523.6235 6816.0786l399.6631 -221.05225l398.8213 222.29932z" fill-rule="nonzero"></path><path stroke="#000000" stroke-width="2.0" stroke-linejoin="round" stroke-linecap="butt" d="m5523.6235 6816.0786l399.6631 -221.05225l398.8213 222.29932z" fill-rule="nonzero"></path><path fill="#3d85c6" d="m5924.129 6157.805l-0.84228516 436.4917l398.8213 223.02881z" fill-rule="nonzero"></path><path stroke="#000000" stroke-width="2.0" stroke-linejoin="round" stroke-linecap="butt" d="m5924.129 6157.805l-0.84228516 436.4917l398.8213 223.02881z" fill-rule="nonzero"></path><path fill="#3d85c6" d="m5401.824 3771.6924l522.31396 -860.94775l522.31396 860.94775z" fill-rule="nonzero"></path><path stroke="#000000" stroke-width="2.0" stroke-linejoin="round" stroke-linecap="butt" d="m5401.824 3771.6924l522.31396 -860.94775l522.31396 860.94775z" fill-rule="nonzero"></path><path fill="#3d85c6" d="m5520.6787 3711.7568l401.34717 -661.5769l401.34766 661.5769z" fill-rule="nonzero"></path><path stroke="#000000" stroke-width="2.0" stroke-linejoin="round" stroke-linecap="butt" d="m5520.6787 3711.7568l401.34717 -661.5769l401.34766 661.5769z" fill-rule="nonzero"></path><path fill="#3d85c6" d="m5521.73 3710.7217l401.45215 -221.67358l-1.15625 -434.7229z" fill-rule="nonzero"></path><path stroke="#000000" stroke-width="2.0" stroke-linejoin="round" stroke-linecap="butt" d="m5521.73 3710.7217l401.45215 -221.67358l-1.15625 -434.7229z" fill-rule="nonzero"></path><path fill="#cfe2f3" d="m5523.6235 3710.1006l399.6631 -221.05249l398.8213 222.29932z" fill-rule="nonzero"></path><path stroke="#000000" stroke-width="2.0" stroke-linejoin="round" stroke-linecap="butt" d="m5523.6235 3710.1006l399.6631 -221.05249l398.8213 222.29932z" fill-rule="nonzero"></path><path fill="#3d85c6" d="m5924.129 3051.827l-0.84228516 436.4917l398.8213 223.02881z" fill-rule="nonzero"></path><path stroke="#000000" stroke-width="2.0" stroke-linejoin="round" stroke-linecap="butt" d="m5924.129 3051.827l-0.84228516 436.4917l398.8213 223.02881z" fill-rule="nonzero"></path><path fill="#3d85c6" d="m7671.701 6877.6704l522.3135 -860.94775l522.31445 860.94775z" fill-rule="nonzero"></path><path stroke="#000000" stroke-width="2.0" stroke-linejoin="round" stroke-linecap="butt" d="m7671.701 6877.6704l522.3135 -860.94775l522.31445 860.94775z" fill-rule="nonzero"></path><path fill="#3d85c6" d="m7790.555 6817.735l401.34766 -661.57666l401.34717 661.57666z" fill-rule="nonzero"></path><path stroke="#000000" stroke-width="2.0" stroke-linejoin="round" stroke-linecap="butt" d="m7790.555 6817.735l401.34766 -661.57666l401.34717 661.57666z" fill-rule="nonzero"></path><path fill="#3d85c6" d="m7791.607 6816.6997l401.45166 -221.67334l-1.1557617 -434.72266z" fill-rule="nonzero"></path><path stroke="#000000" stroke-width="2.0" stroke-linejoin="round" stroke-linecap="butt" d="m7791.607 6816.6997l401.45166 -221.67334l-1.1557617 -434.72266z" fill-rule="nonzero"></path><path fill="#3d85c6" d="m7793.5 6816.0786l399.6631 -221.05225l398.82227 222.29932z" fill-rule="nonzero"></path><path stroke="#000000" stroke-width="2.0" stroke-linejoin="round" stroke-linecap="butt" d="m7793.5 6816.0786l399.6631 -221.05225l398.82227 222.29932z" fill-rule="nonzero"></path><path fill="#3d85c6" d="m8194.006 6157.805l-0.84277344 436.4917l398.82227 223.02881z" fill-rule="nonzero"></path><path stroke="#000000" stroke-width="2.0" stroke-linejoin="round" stroke-linecap="butt" d="m8194.006 6157.805l-0.84277344 436.4917l398.82227 223.02881z" fill-rule="nonzero"></path><path fill="#000000" fill-opacity="0.0" d="m2542.262 718.41455l0 6286.1416" fill-rule="nonzero"></path><path stroke="#000000" stroke-width="2.0" stroke-linejoin="round" stroke-linecap="butt" d="m2542.262 718.41455l0 6286.1416" fill-rule="nonzero"></path><path fill="#000000" fill-opacity="0.0" d="m4812.1387 718.41455l0 6286.1416" fill-rule="nonzero"></path><path stroke="#000000" stroke-width="2.0" stroke-linejoin="round" stroke-linecap="butt" d="m4812.1387 718.41455l0 6286.1416" fill-rule="nonzero"></path><path fill="#000000" fill-opacity="0.0" d="m7082.0156 718.41455l0 6286.1416" fill-rule="nonzero"></path><path stroke="#000000" stroke-width="2.0" stroke-linejoin="round" stroke-linecap="butt" d="m7082.0156 718.41455l0 6286.1416" fill-rule="nonzero"></path></g></svg>

