<?xml version="1.0" standalone="yes"?>

<svg version="1.1" viewBox="0.0 0.0 1931.0 1073.0" fill="none" stroke="none" stroke-linecap="square" stroke-miterlimit="10" xmlns="http://www.w3.org/2000/svg" xmlns:xlink="http://www.w3.org/1999/xlink"><clipPath id="p.0"><path d="m0 0l1931.0 0l0 1073.0l-1931.0 0l0 -1073.0z" clip-rule="nonzero"></path></clipPath><g clip-path="url(#p.0)"><path fill="#000000" fill-opacity="0.0" d="m0 0l1931.7874 0l0 1073.9553l-1931.7874 0z" fill-rule="nonzero"></path><path fill="#cfe2f3" d="m31.50434 389.54953l319.9555 0l0 288.822l-319.9555 0z" fill-rule="nonzero"></path><path stroke="#000000" stroke-width="2.0" stroke-linejoin="round" stroke-linecap="butt" d="m31.50434 389.54953l319.9555 0l0 288.822l-319.9555 0z" fill-rule="nonzero"></path><path fill="#3d85c6" d="m101.30661 450.76218l180.35095 0l0 166.3967l-180.35095 0z" fill-rule="nonzero"></path><path stroke="#000000" stroke-width="2.0" stroke-linejoin="round" stroke-linecap="butt" d="m101.30661 450.76218l180.35095 0l0 166.3967l-180.35095 0z" fill-rule="nonzero"></path><path fill="#cfe2f3" d="m101.037865 451.28415l-69.53352 -61.73462l319.96066 0l-69.72473 61.53308z" fill-rule="nonzero"></path><path stroke="#000000" stroke-width="2.0" stroke-linejoin="round" stroke-linecap="butt" d="m101.037865 451.28415l-69.53352 -61.73462l319.96066 0l-69.72473 61.53308z" fill-rule="nonzero"></path><path fill="#cfe2f3" d="m101.037865 452.43668l-69.53352 -61.73465l0.20156288 287.6488l69.53352 -61.739807z" fill-rule="nonzero"></path><path stroke="#000000" stroke-width="2.0" stroke-linejoin="round" stroke-linecap="butt" d="m101.037865 452.43668l-69.53352 -61.73465l0.20156288 287.6488l69.53352 -61.739807z" fill-rule="nonzero"></path><path fill="#cfe2f3" d="m281.5387 615.99603l69.73508 61.941345l-319.56787 -0.14984131l69.53352 -61.739807z" fill-rule="nonzero"></path><path stroke="#000000" stroke-width="2.0" stroke-linejoin="round" stroke-linecap="butt" d="m281.5387 615.99603l69.73508 61.941345l-319.56787 -0.14984131l69.53352 -61.739807z" fill-rule="nonzero"></path><path fill="#cfe2f3" d="m281.5387 615.99603l69.73508 61.941345l-0.2015686 -288.1863l-69.53351 61.53308z" fill-rule="nonzero"></path><path stroke="#000000" stroke-width="2.0" stroke-linejoin="round" stroke-linecap="butt" d="m281.5387 615.99603l69.73508 61.941345l-0.2015686 -288.1863l-69.53351 61.53308z" fill-rule="nonzero"></path><path fill="#cfe2f3" d="m1575.2582 389.54395l319.937 0l0 288.8189l-319.937 0z" fill-rule="nonzero"></path><path stroke="#000000" stroke-width="2.0" stroke-linejoin="round" stroke-linecap="butt" d="m1575.2582 389.54395l319.937 0l0 288.8189l-319.937 0z" fill-rule="nonzero"></path><path fill="#3d85c6" d="m1645.0597 450.75595l180.34644 0l0 166.3937l-180.34644 0z" fill-rule="nonzero"></path><path stroke="#000000" stroke-width="2.0" stroke-linejoin="round" stroke-linecap="butt" d="m1645.0597 450.75595l180.34644 0l0 166.3937l-180.34644 0z" fill-rule="nonzero"></path><path fill="#cfe2f3" d="m1644.7917 451.27856l-69.53357 -61.73462l319.9607 0l-69.72473 61.53308z" fill-rule="nonzero"></path><path stroke="#000000" stroke-width="2.0" stroke-linejoin="round" stroke-linecap="butt" d="m1644.7917 451.27856l-69.53357 -61.73462l319.9607 0l-69.72473 61.53308z" fill-rule="nonzero"></path><path fill="#cfe2f3" d="m1644.7917 452.4311l-69.53357 -61.73465l0.20153809 287.64883l69.53357 -61.739807z" fill-rule="nonzero"></path><path stroke="#000000" stroke-width="2.0" stroke-linejoin="round" stroke-linecap="butt" d="m1644.7917 452.4311l-69.53357 -61.73465l0.20153809 287.64883l69.53357 -61.739807z" fill-rule="nonzero"></path><path fill="#cfe2f3" d="m1825.2926 615.9881l69.734985 61.941345l-319.56787 -0.14984131l69.53357 -61.739807z" fill-rule="nonzero"></path><path stroke="#000000" stroke-width="2.0" stroke-linejoin="round" stroke-linecap="butt" d="m1825.2926 615.9881l69.734985 61.941345l-319.56787 -0.14984131l69.53357 -61.739807z" fill-rule="nonzero"></path><path fill="#3d85c6" d="m1825.2897 615.9904l69.73511 61.941406l-0.20153809 -288.18634l-69.53357 61.53308z" fill-rule="nonzero"></path><path stroke="#000000" stroke-width="2.0" stroke-linejoin="round" stroke-linecap="butt" d="m1825.2897 615.9904l69.73511 61.941406l-0.20153809 -288.18634l-69.53357 61.53308z" fill-rule="nonzero"></path><path fill="#cfe2f3" d="m546.4235 24.381275l141.77094 0l0 135.10434l-141.77094 0z" fill-rule="nonzero"></path><path stroke="#000000" stroke-width="2.0" stroke-linejoin="round" stroke-linecap="butt" d="m546.4235 24.381275l141.77094 0l0 135.10434l-141.77094 0z" fill-rule="nonzero"></path><path fill="#3d85c6" d="m577.3526 53.015156l79.91278 0l0 77.83658l-79.91278 0z" fill-rule="nonzero"></path><path stroke="#000000" stroke-width="2.0" stroke-linejoin="round" stroke-linecap="butt" d="m577.3526 53.015156l79.91278 0l0 77.83658l-79.91278 0z" fill-rule="nonzero"></path><path fill="#cfe2f3" d="m577.2335 53.25933l-30.809998 -28.878056l141.77325 0l-30.894775 28.783772z" fill-rule="nonzero"></path><path stroke="#000000" stroke-width="2.0" stroke-linejoin="round" stroke-linecap="butt" d="m577.2335 53.25933l-30.809998 -28.878056l141.77325 0l-30.894775 28.783772z" fill-rule="nonzero"></path><path fill="#cfe2f3" d="m577.2335 53.798454l-30.809998 -28.878057l0.08929443 134.55554l30.810059 -28.880463z" fill-rule="nonzero"></path><path stroke="#000000" stroke-width="2.0" stroke-linejoin="round" stroke-linecap="butt" d="m577.2335 53.798454l-30.809998 -28.878057l0.08929443 134.55554l30.810059 -28.880463z" fill-rule="nonzero"></path><path fill="#cfe2f3" d="m657.2127 130.30777l30.899292 28.974762l-141.59918 -0.070114136l30.810059 -28.880463z" fill-rule="nonzero"></path><path stroke="#000000" stroke-width="2.0" stroke-linejoin="round" stroke-linecap="butt" d="m657.2127 130.30777l30.899292 28.974762l-141.59918 -0.070114136l30.810059 -28.880463z" fill-rule="nonzero"></path><path fill="#3d85c6" d="m657.2127 130.30777l30.899292 28.974762l-0.08929443 -134.80698l-30.809998 28.78377z" fill-rule="nonzero"></path><path stroke="#000000" stroke-width="2.0" stroke-linejoin="round" stroke-linecap="butt" d="m657.2127 130.30777l30.899292 28.974762l-0.08929443 -134.80698l-30.809998 28.78377z" fill-rule="nonzero"></path><path fill="#cfe2f3" d="m782.7128 24.381275l141.77094 0l0 135.10434l-141.77094 0z" fill-rule="nonzero"></path><path stroke="#000000" stroke-width="2.0" stroke-linejoin="round" stroke-linecap="butt" d="m782.7128 24.381275l141.77094 0l0 135.10434l-141.77094 0z" fill-rule="nonzero"></path><path fill="#3d85c6" d="m813.6419 53.015156l79.91272 0l0 77.83658l-79.91272 0z" fill-rule="nonzero"></path><path stroke="#000000" stroke-width="2.0" stroke-linejoin="round" stroke-linecap="butt" d="m813.6419 53.015156l79.91272 0l0 77.83658l-79.91272 0z" fill-rule="nonzero"></path><path fill="#3d85c6" d="m813.5228 53.25933l-30.809998 -28.878056l141.7732 0l-30.894714 28.783772z" fill-rule="nonzero"></path><path stroke="#000000" stroke-width="2.0" stroke-linejoin="round" stroke-linecap="butt" d="m813.5228 53.25933l-30.809998 -28.878056l141.7732 0l-30.894714 28.783772z" fill-rule="nonzero"></path><path fill="#cfe2f3" d="m813.5228 53.798454l-30.809998 -28.878057l0.08929443 134.55554l30.809998 -28.880463z" fill-rule="nonzero"></path><path stroke="#000000" stroke-width="2.0" stroke-linejoin="round" stroke-linecap="butt" d="m813.5228 53.798454l-30.809998 -28.878057l0.08929443 134.55554l30.809998 -28.880463z" fill-rule="nonzero"></path><path fill="#cfe2f3" d="m893.50195 130.30777l30.899353 28.974762l-141.59918 -0.070114136l30.809998 -28.880463z" fill-rule="nonzero"></path><path stroke="#000000" stroke-width="2.0" stroke-linejoin="round" stroke-linecap="butt" d="m893.50195 130.30777l30.899353 28.974762l-141.59918 -0.070114136l30.809998 -28.880463z" fill-rule="nonzero"></path><path fill="#cfe2f3" d="m893.50195 130.30777l30.899353 28.974762l-0.08929443 -134.80698l-30.810059 28.78377z" fill-rule="nonzero"></path><path stroke="#000000" stroke-width="2.0" stroke-linejoin="round" stroke-linecap="butt" d="m893.50195 130.30777l30.899353 28.974762l-0.08929443 -134.80698l-30.810059 28.78377z" fill-rule="nonzero"></path><path fill="#3d85c6" d="m1019.00214 24.381275l141.77094 0l0 135.10434l-141.77094 0z" fill-rule="nonzero"></path><path stroke="#000000" stroke-width="2.0" stroke-linejoin="round" stroke-linecap="butt" d="m1019.00214 24.381275l141.77094 0l0 135.10434l-141.77094 0z" fill-rule="nonzero"></path><path fill="#3d85c6" d="m1049.9313 53.015156l79.91272 0l0 77.83658l-79.91272 0z" fill-rule="nonzero"></path><path stroke="#000000" stroke-width="2.0" stroke-linejoin="round" stroke-linecap="butt" d="m1049.9313 53.015156l79.91272 0l0 77.83658l-79.91272 0z" fill-rule="nonzero"></path><path fill="#cfe2f3" d="m1049.8121 53.25933l-30.809998 -28.878056l141.77325 0l-30.894775 28.783772z" fill-rule="nonzero"></path><path stroke="#000000" stroke-width="2.0" stroke-linejoin="round" stroke-linecap="butt" d="m1049.8121 53.25933l-30.809998 -28.878056l141.77325 0l-30.894775 28.783772z" fill-rule="nonzero"></path><path fill="#3d85c6" d="m1049.8121 53.798454l-30.809998 -28.878057l0.08929443 134.55554l30.810059 -28.880463z" fill-rule="nonzero"></path><path stroke="#000000" stroke-width="2.0" stroke-linejoin="round" stroke-linecap="butt" d="m1049.8121 53.798454l-30.809998 -28.878057l0.08929443 134.55554l30.810059 -28.880463z" fill-rule="nonzero"></path><path fill="#cfe2f3" d="m1129.7913 130.30777l30.899414 28.974762l-141.59924 -0.070114136l30.810059 -28.880463z" fill-rule="nonzero"></path><path stroke="#000000" stroke-width="2.0" stroke-linejoin="round" stroke-linecap="butt" d="m1129.7913 130.30777l30.899414 28.974762l-141.59924 -0.070114136l30.810059 -28.880463z" fill-rule="nonzero"></path><path fill="#cfe2f3" d="m1129.7913 130.30777l30.899414 28.974762l-0.08935547 -134.80698l-30.810059 28.78377z" fill-rule="nonzero"></path><path stroke="#000000" stroke-width="2.0" stroke-linejoin="round" stroke-linecap="butt" d="m1129.7913 130.30777l30.899414 28.974762l-0.08935547 -134.80698l-30.810059 28.78377z" fill-rule="nonzero"></path><path fill="#cfe2f3" d="m1255.2914 24.381275l141.771 0l0 135.10434l-141.771 0z" fill-rule="nonzero"></path><path stroke="#000000" stroke-width="2.0" stroke-linejoin="round" stroke-linecap="butt" d="m1255.2914 24.381275l141.771 0l0 135.10434l-141.771 0z" fill-rule="nonzero"></path><path fill="#3d85c6" d="m1286.2206 53.015156l79.91272 0l0 77.83658l-79.91272 0z" fill-rule="nonzero"></path><path stroke="#000000" stroke-width="2.0" stroke-linejoin="round" stroke-linecap="butt" d="m1286.2206 53.015156l79.91272 0l0 77.83658l-79.91272 0z" fill-rule="nonzero"></path><path fill="#cfe2f3" d="m1286.1014 53.25933l-30.810059 -28.878056l141.77332 0l-30.894775 28.783772z" fill-rule="nonzero"></path><path stroke="#000000" stroke-width="2.0" stroke-linejoin="round" stroke-linecap="butt" d="m1286.1014 53.25933l-30.810059 -28.878056l141.77332 0l-30.894775 28.783772z" fill-rule="nonzero"></path><path fill="#cfe2f3" d="m1286.1014 53.798454l-30.810059 -28.878057l0.08935547 134.55554l30.810059 -28.880463z" fill-rule="nonzero"></path><path stroke="#000000" stroke-width="2.0" stroke-linejoin="round" stroke-linecap="butt" d="m1286.1014 53.798454l-30.810059 -28.878057l0.08935547 134.55554l30.810059 -28.880463z" fill-rule="nonzero"></path><path fill="#3d85c6" d="m1366.0806 130.30777l30.899414 28.974762l-141.59924 -0.070114136l30.810059 -28.880463z" fill-rule="nonzero"></path><path stroke="#000000" stroke-width="2.0" stroke-linejoin="round" stroke-linecap="butt" d="m1366.0806 130.30777l30.899414 28.974762l-141.59924 -0.070114136l30.810059 -28.880463z" fill-rule="nonzero"></path><path fill="#cfe2f3" d="m1366.0806 130.30777l30.899414 28.974762l-0.08935547 -134.80698l-30.810059 28.78377z" fill-rule="nonzero"></path><path stroke="#000000" stroke-width="2.0" stroke-linejoin="round" stroke-linecap="butt" d="m1366.0806 130.30777l30.899414 28.974762l-0.08935547 -134.80698l-30.810059 28.78377z" fill-rule="nonzero"></path><path fill="#cfe2f3" d="m719.70233 906.52893l141.771 0l0 135.10437l-141.771 0z" fill-rule="nonzero"></path><path stroke="#000000" stroke-width="2.0" stroke-linejoin="round" stroke-linecap="butt" d="m719.70233 906.52893l141.771 0l0 135.10437l-141.771 0z" fill-rule="nonzero"></path><path fill="#3d85c6" d="m750.6315 935.16284l79.91272 0l0 77.83655l-79.91272 0z" fill-rule="nonzero"></path><path stroke="#000000" stroke-width="2.0" stroke-linejoin="round" stroke-linecap="butt" d="m750.6315 935.16284l79.91272 0l0 77.83655l-79.91272 0z" fill-rule="nonzero"></path><path fill="#cfe2f3" d="m750.5124 935.40704l-30.810059 -28.878113l141.77325 0l-30.894714 28.783813z" fill-rule="nonzero"></path><path stroke="#000000" stroke-width="2.0" stroke-linejoin="round" stroke-linecap="butt" d="m750.5124 935.40704l-30.810059 -28.878113l141.77325 0l-30.894714 28.783813z" fill-rule="nonzero"></path><path fill="#cfe2f3" d="m750.5124 935.9461l-30.810059 -28.878052l0.08935547 134.5556l30.809998 -28.880493z" fill-rule="nonzero"></path><path stroke="#000000" stroke-width="2.0" stroke-linejoin="round" stroke-linecap="butt" d="m750.5124 935.9461l-30.810059 -28.878052l0.08935547 134.5556l30.809998 -28.880493z" fill-rule="nonzero"></path><path fill="#cfe2f3" d="m830.4915 1012.45544l30.899353 28.974731l-141.59918 -0.07006836l30.809998 -28.880493z" fill-rule="nonzero"></path><path stroke="#000000" stroke-width="2.0" stroke-linejoin="round" stroke-linecap="butt" d="m830.4915 1012.45544l30.899353 28.974731l-141.59918 -0.07006836l30.809998 -28.880493z" fill-rule="nonzero"></path><path fill="#cfe2f3" d="m830.4915 1012.45544l30.899353 28.974731l-0.08929443 -134.80695l-30.810059 28.783813z" fill-rule="nonzero"></path><path stroke="#000000" stroke-width="2.0" stroke-linejoin="round" stroke-linecap="butt" d="m830.4915 1012.45544l30.899353 28.974731l-0.08929443 -134.80695l-30.810059 28.783813z" fill-rule="nonzero"></path><path fill="#cfe2f3" d="m1097.7653 906.52893l141.77087 0l0 135.10437l-141.77087 0z" fill-rule="nonzero"></path><path stroke="#000000" stroke-width="2.0" stroke-linejoin="round" stroke-linecap="butt" d="m1097.7653 906.52893l141.77087 0l0 135.10437l-141.77087 0z" fill-rule="nonzero"></path><path fill="#cfe2f3" d="m1128.6943 935.16284l79.91272 0l0 77.83655l-79.91272 0z" fill-rule="nonzero"></path><path stroke="#000000" stroke-width="2.0" stroke-linejoin="round" stroke-linecap="butt" d="m1128.6943 935.16284l79.91272 0l0 77.83655l-79.91272 0z" fill-rule="nonzero"></path><path fill="#cfe2f3" d="m1128.5752 935.40704l-30.809937 -28.878113l141.7732 0l-30.894775 28.783813z" fill-rule="nonzero"></path><path stroke="#000000" stroke-width="2.0" stroke-linejoin="round" stroke-linecap="butt" d="m1128.5752 935.40704l-30.809937 -28.878113l141.7732 0l-30.894775 28.783813z" fill-rule="nonzero"></path><path fill="#cfe2f3" d="m1128.5752 935.9461l-30.809937 -28.878052l0.0892334 134.5556l30.810059 -28.880493z" fill-rule="nonzero"></path><path stroke="#000000" stroke-width="2.0" stroke-linejoin="round" stroke-linecap="butt" d="m1128.5752 935.9461l-30.809937 -28.878052l0.0892334 134.5556l30.810059 -28.880493z" fill-rule="nonzero"></path><path fill="#cfe2f3" d="m1208.5544 1012.45544l30.899292 28.974731l-141.59924 -0.07006836l30.810059 -28.880493z" fill-rule="nonzero"></path><path stroke="#000000" stroke-width="2.0" stroke-linejoin="round" stroke-linecap="butt" d="m1208.5544 1012.45544l30.899292 28.974731l-141.59924 -0.07006836l30.810059 -28.880493z" fill-rule="nonzero"></path><path fill="#3d85c6" d="m1208.5544 1012.45544l30.899292 28.974731l-0.08935547 -134.80695l-30.809937 28.783813z" fill-rule="nonzero"></path><path stroke="#000000" stroke-width="2.0" stroke-linejoin="round" stroke-linecap="butt" d="m1208.5544 1012.45544l30.899292 28.974731l-0.08935547 -134.80695l-30.809937 28.783813z" fill-rule="nonzero"></path><path fill="#cfe2f3" d="m176.22594 368.2473l0 -76.02164l0 0c0 -32.655487 26.472488 -59.12796 59.127945 -59.12796l1451.9685 0c15.681763 0 30.721191 6.229538 41.809814 17.318176c11.088623 11.088654 17.318115 26.128082 17.318115 41.809784l0 8.446838l16.893677 0l-33.787354 33.787415l-33.787354 -33.787415l16.893677 0l0 -8.446838l0 0c0 -13.995209 -11.345337 -25.340546 -25.340576 -25.340546l-1451.9685 0l0 0c-13.9951935 0 -25.340546 11.345337 -25.340546 25.340546l0 76.02164z" fill-rule="nonzero"></path><path stroke="#000000" stroke-width="2.0" stroke-linejoin="round" stroke-linecap="butt" d="m176.22594 368.2473l0 -76.02164l0 0c0 -32.655487 26.472488 -59.12796 59.127945 -59.12796l1451.9685 0c15.681763 0 30.721191 6.229538 41.809814 17.318176c11.088623 11.088654 17.318115 26.128082 17.318115 41.809784l0 8.446838l16.893677 0l-33.787354 33.787415l-33.787354 -33.787415l16.893677 0l0 -8.446838l0 0c0 -13.995209 -11.345337 -25.340546 -25.340576 -25.340546l-1451.9685 0l0 0c-13.9951935 0 -25.340546 11.345337 -25.340546 25.340546l0 76.02164z" fill-rule="nonzero"></path><path fill="#cfe2f3" d="m1763.3025 705.665l0 76.02167l0 0c0 32.655457 -26.472412 59.12793 -59.12793 59.12793l-1467.6536 0c-15.681702 0 -30.72113 -6.229492 -41.80977 -17.318176c-11.088654 -11.088623 -17.318176 -26.128052 -17.318176 -41.809753l0 -8.446838l-16.893707 0l33.7874 -33.787415l33.7874 33.787415l-16.893692 0l0 8.446838l0 0c0 13.995178 11.345352 25.340576 25.340546 25.340576l1467.6536 0l0 0c13.995239 0 25.340576 -11.345398 25.340576 -25.340576l0 -76.02167z" fill-rule="nonzero"></path><path stroke="#000000" stroke-width="2.0" stroke-linejoin="round" stroke-linecap="butt" d="m1763.3025 705.665l0 76.02167l0 0c0 32.655457 -26.472412 59.12793 -59.12793 59.12793l-1467.6536 0c-15.681702 0 -30.72113 -6.229492 -41.80977 -17.318176c-11.088654 -11.088623 -17.318176 -26.128052 -17.318176 -41.809753l0 -8.446838l-16.893707 0l33.7874 -33.787415l33.7874 33.787415l-16.893692 0l0 8.446838l0 0c0 13.995178 11.345352 25.340576 25.340546 25.340576l1467.6536 0l0 0c13.995239 0 25.340576 -11.345398 25.340576 -25.340576l0 -76.02167z" fill-rule="nonzero"></path></g></svg>

