<?xml version="1.0" standalone="yes"?>

<svg version="1.1" viewBox="0.0 0.0 5318.0 1793.0" fill="none" stroke="none" stroke-linecap="square" stroke-miterlimit="10" xmlns="http://www.w3.org/2000/svg" xmlns:xlink="http://www.w3.org/1999/xlink"><clipPath id="p.0"><path d="m0 0l5318.0 0l0 1793.0l-5318.0 0l0 -1793.0z" clip-rule="nonzero"></path></clipPath><g clip-path="url(#p.0)"><path fill="#000000" fill-opacity="0.0" d="m0 0l5318.6353 0l0 1793.9003l-5318.6353 0z" fill-rule="nonzero"></path><path fill="#000000" fill-opacity="0.0" d="m3718.3857 878.80316l0 0c0 -352.80127 286.00195 -638.80316 638.8032 -638.80316l0 0c169.4209 0 331.90332 67.30228 451.70215 187.1011c119.79883 119.79886 187.10107 282.2809 187.10107 451.70206l0 0c0 352.8012 -286.00195 638.80316 -638.8032 638.80316l0 0c-352.80127 0 -638.8032 -286.00195 -638.8032 -638.80316z" fill-rule="nonzero"></path><path stroke="#000000" stroke-width="2.0" stroke-linejoin="round" stroke-linecap="butt" d="m3718.3857 878.80316l0 0c0 -352.80127 286.00195 -638.80316 638.8032 -638.80316l0 0c169.4209 0 331.90332 67.30228 451.70215 187.1011c119.79883 119.79886 187.10107 282.2809 187.10107 451.70206l0 0c0 352.8012 -286.00195 638.80316 -638.8032 638.80316l0 0c-352.80127 0 -638.8032 -286.00195 -638.8032 -638.80316z" fill-rule="nonzero"></path><path fill="#000000" fill-opacity="0.0" d="m318.38583 878.80316l0 0c0 -352.80127 286.00192 -638.80316 638.8031 -638.80316l0 0c169.42114 0 331.9032 67.30228 451.70203 187.1011c119.79883 119.79886 187.10107 282.2809 187.10107 451.70206l0 0c0 352.8012 -286.00183 638.80316 -638.8031 638.80316l0 0c-352.8012 0 -638.8031 -286.00195 -638.8031 -638.80316z" fill-rule="nonzero"></path><path stroke="#000000" stroke-width="2.0" stroke-linejoin="round" stroke-linecap="butt" d="m318.38583 878.80316l0 0c0 -352.80127 286.00192 -638.80316 638.8031 -638.80316l0 0c169.42114 0 331.9032 67.30228 451.70203 187.1011c119.79883 119.79886 187.10107 282.2809 187.10107 451.70206l0 0c0 352.8012 -286.00183 638.80316 -638.8031 638.80316l0 0c-352.8012 0 -638.8031 -286.00195 -638.8031 -638.80316z" fill-rule="nonzero"></path><path fill="#000000" fill-opacity="0.0" d="m2022.3859 878.80316l0 0c0 -352.80127 286.00183 -638.80316 638.8031 -638.80316l0 0c169.42114 0 331.90332 67.30228 451.70215 187.1011c119.79883 119.79886 187.10107 282.2809 187.10107 451.70206l0 0c0 352.8012 -286.00195 638.80316 -638.8032 638.80316l0 0c-352.80127 0 -638.8031 -286.00195 -638.8031 -638.80316z" fill-rule="nonzero"></path><path stroke="#000000" stroke-width="2.0" stroke-linejoin="round" stroke-linecap="butt" d="m2022.3859 878.80316l0 0c0 -352.80127 286.00183 -638.80316 638.8031 -638.80316l0 0c169.42114 0 331.90332 67.30228 451.70215 187.1011c119.79883 119.79886 187.10107 282.2809 187.10107 451.70206l0 0c0 352.8012 -286.00195 638.80316 -638.8032 638.80316l0 0c-352.80127 0 -638.8031 -286.00195 -638.8031 -638.80316z" fill-rule="nonzero"></path><path fill="#cfe2f3" d="m438.0707 1155.6895l522.31494 -860.94495l522.315 860.94495z" fill-rule="nonzero"></path><path stroke="#000000" stroke-width="2.0" stroke-linejoin="round" stroke-linecap="butt" d="m438.0707 1155.6895l522.31494 -860.94495l522.315 860.94495z" fill-rule="nonzero"></path><path fill="#3d85c6" d="m1061.282 824.80505l-100.89758 166.33069l-100.897644 -166.33069z" fill-rule="nonzero"></path><path stroke="#000000" stroke-width="2.0" stroke-linejoin="round" stroke-linecap="butt" d="m1061.282 824.80505l-100.89758 166.33069l-100.897644 -166.33069z" fill-rule="nonzero"></path><path fill="#cfe2f3" d="m960.3832 991.8583l398.9922 103.17322l-297.83472 -269.21783z" fill-rule="nonzero"></path><path stroke="#000000" stroke-width="2.0" stroke-linejoin="round" stroke-linecap="butt" d="m960.3832 991.8583l398.9922 103.17322l-297.83472 -269.21783z" fill-rule="nonzero"></path><path fill="#cfe2f3" d="m556.958 1095.4357l802.82153 0.80578613l-398.18634 -103.979004z" fill-rule="nonzero"></path><path stroke="#000000" stroke-width="2.0" stroke-linejoin="round" stroke-linecap="butt" d="m556.958 1095.4357l802.82153 0.80578613l-398.18634 -103.979004z" fill-rule="nonzero"></path><path fill="#cfe2f3" d="m958.36743 436.09186l-401.40942 659.3438l303.47504 -270.02625z" fill-rule="nonzero"></path><path stroke="#000000" stroke-width="2.0" stroke-linejoin="round" stroke-linecap="butt" d="m958.36743 436.09186l-401.40942 659.3438l303.47504 -270.02625z" fill-rule="nonzero"></path><path fill="#cfe2f3" d="m860.0315 825.0079l-303.0735 270.83197l403.82678 -104.38318z" fill-rule="nonzero"></path><path stroke="#000000" stroke-width="2.0" stroke-linejoin="round" stroke-linecap="butt" d="m860.0315 825.0079l-303.0735 270.83197l403.82678 -104.38318z" fill-rule="nonzero"></path><path fill="#cfe2f3" d="m959.57745 435.68765l-98.33862 389.72177l200.30182 -0.19946289z" fill-rule="nonzero"></path><path stroke="#000000" stroke-width="2.0" stroke-linejoin="round" stroke-linecap="butt" d="m959.57745 435.68765l-98.33862 389.72177l200.30182 -0.19946289z" fill-rule="nonzero"></path><path fill="#cfe2f3" d="m959.57745 434.8819l101.963196 391.73755l296.62476 267.60626z" fill-rule="nonzero"></path><path stroke="#000000" stroke-width="2.0" stroke-linejoin="round" stroke-linecap="butt" d="m959.57745 434.8819l101.963196 391.73755l296.62476 267.60626z" fill-rule="nonzero"></path><path fill="#cfe2f3" d="m2134.0708 1155.6895l522.31494 -860.94495l522.31494 860.94495z" fill-rule="nonzero"></path><path stroke="#000000" stroke-width="2.0" stroke-linejoin="round" stroke-linecap="butt" d="m2134.0708 1155.6895l522.31494 -860.94495l522.31494 860.94495z" fill-rule="nonzero"></path><path fill="#3d85c6" d="m2757.282 824.80505l-100.897705 166.33069l-100.89746 -166.33069z" fill-rule="nonzero"></path><path stroke="#000000" stroke-width="2.0" stroke-linejoin="round" stroke-linecap="butt" d="m2757.282 824.80505l-100.897705 166.33069l-100.89746 -166.33069z" fill-rule="nonzero"></path><path fill="#cfe2f3" d="m2656.3833 991.8583l398.99194 103.17322l-297.83447 -269.21783z" fill-rule="nonzero"></path><path stroke="#000000" stroke-width="2.0" stroke-linejoin="round" stroke-linecap="butt" d="m2656.3833 991.8583l398.99194 103.17322l-297.83447 -269.21783z" fill-rule="nonzero"></path><path fill="#cfe2f3" d="m2252.958 1095.4357l802.82153 0.80578613l-398.18628 -103.979004z" fill-rule="nonzero"></path><path stroke="#000000" stroke-width="2.0" stroke-linejoin="round" stroke-linecap="butt" d="m2252.958 1095.4357l802.82153 0.80578613l-398.18628 -103.979004z" fill-rule="nonzero"></path><path fill="#cfe2f3" d="m2654.3674 436.09186l-401.40942 659.3438l303.4751 -270.02625z" fill-rule="nonzero"></path><path stroke="#000000" stroke-width="2.0" stroke-linejoin="round" stroke-linecap="butt" d="m2654.3674 436.09186l-401.40942 659.3438l303.4751 -270.02625z" fill-rule="nonzero"></path><path fill="#3d85c6" d="m2556.0315 825.0079l-303.0735 270.83197l403.82666 -104.38318z" fill-rule="nonzero"></path><path stroke="#000000" stroke-width="2.0" stroke-linejoin="round" stroke-linecap="butt" d="m2556.0315 825.0079l-303.0735 270.83197l403.82666 -104.38318z" fill-rule="nonzero"></path><path fill="#cfe2f3" d="m2655.5774 435.68765l-98.33862 389.72177l200.302 -0.19946289z" fill-rule="nonzero"></path><path stroke="#000000" stroke-width="2.0" stroke-linejoin="round" stroke-linecap="butt" d="m2655.5774 435.68765l-98.33862 389.72177l200.302 -0.19946289z" fill-rule="nonzero"></path><path fill="#cfe2f3" d="m2655.5774 434.8819l101.96338 391.73755l296.6245 267.60626z" fill-rule="nonzero"></path><path stroke="#000000" stroke-width="2.0" stroke-linejoin="round" stroke-linecap="butt" d="m2655.5774 434.8819l101.96338 391.73755l296.6245 267.60626z" fill-rule="nonzero"></path><path fill="#cfe2f3" d="m3830.0708 1155.6895l522.31494 -860.94495l522.31494 860.94495z" fill-rule="nonzero"></path><path stroke="#000000" stroke-width="2.0" stroke-linejoin="round" stroke-linecap="butt" d="m3830.0708 1155.6895l522.31494 -860.94495l522.31494 860.94495z" fill-rule="nonzero"></path><path fill="#3d85c6" d="m4453.282 824.80505l-100.89795 166.33069l-100.89746 -166.33069z" fill-rule="nonzero"></path><path stroke="#000000" stroke-width="2.0" stroke-linejoin="round" stroke-linecap="butt" d="m4453.282 824.80505l-100.89795 166.33069l-100.89746 -166.33069z" fill-rule="nonzero"></path><path fill="#cfe2f3" d="m4352.3833 991.8583l398.9922 103.17322l-297.83496 -269.21783z" fill-rule="nonzero"></path><path stroke="#000000" stroke-width="2.0" stroke-linejoin="round" stroke-linecap="butt" d="m4352.3833 991.8583l398.9922 103.17322l-297.83496 -269.21783z" fill-rule="nonzero"></path><path fill="#cfe2f3" d="m3948.958 1095.4357l802.8213 0.80578613l-398.18604 -103.979004z" fill-rule="nonzero"></path><path stroke="#000000" stroke-width="2.0" stroke-linejoin="round" stroke-linecap="butt" d="m3948.958 1095.4357l802.8213 0.80578613l-398.18604 -103.979004z" fill-rule="nonzero"></path><path fill="#cfe2f3" d="m4350.3677 436.09186l-401.40967 659.3438l303.4751 -270.02625z" fill-rule="nonzero"></path><path stroke="#000000" stroke-width="2.0" stroke-linejoin="round" stroke-linecap="butt" d="m4350.3677 436.09186l-401.40967 659.3438l303.4751 -270.02625z" fill-rule="nonzero"></path><path fill="#3d85c6" d="m4252.0317 825.0079l-303.07373 270.83197l403.82666 -104.38318z" fill-rule="nonzero"></path><path stroke="#000000" stroke-width="2.0" stroke-linejoin="round" stroke-linecap="butt" d="m4252.0317 825.0079l-303.07373 270.83197l403.82666 -104.38318z" fill-rule="nonzero"></path><path fill="#3d85c6" d="m4351.5776 435.68765l-98.33887 389.72177l200.30176 -0.19946289z" fill-rule="nonzero"></path><path stroke="#000000" stroke-width="2.0" stroke-linejoin="round" stroke-linecap="butt" d="m4351.5776 435.68765l-98.33887 389.72177l200.30176 -0.19946289z" fill-rule="nonzero"></path><path fill="#cfe2f3" d="m4351.5776 434.8819l101.96289 391.73755l296.625 267.60626z" fill-rule="nonzero"></path><path stroke="#000000" stroke-width="2.0" stroke-linejoin="round" stroke-linecap="butt" d="m4351.5776 434.8819l101.96289 391.73755l296.625 267.60626z" fill-rule="nonzero"></path><path fill="#cfe2f3" d="m2908.1406 1433.2478l33.28125 -18.336304l46.167725 13.37561l-13.380371 46.18347l-33.28125 18.336304l13.380371 -46.18347z" fill-rule="nonzero"></path><path stroke="#000000" stroke-width="2.0" stroke-linejoin="round" stroke-linecap="butt" d="m2908.1406 1433.2478l33.28125 -18.336304l46.167725 13.37561l-13.380371 46.18347l-33.28125 18.336304l13.380371 -46.18347z" fill-rule="nonzero"></path><path fill="#cfe2f3" d="m2414.7544 323.75223l-33.28125 18.336243l-46.167725 -13.375641l13.380371 -46.18341l33.28125 -18.336273l-13.380371 46.18344z" fill-rule="nonzero"></path><path stroke="#000000" stroke-width="2.0" stroke-linejoin="round" stroke-linecap="butt" d="m2414.7544 323.75223l-33.28125 18.336243l-46.167725 -13.375641l13.380371 -46.18341l33.28125 -18.336273l-13.380371 46.18344z" fill-rule="nonzero"></path><path fill="#cfe2f3" d="m3752.5093 827.0l0 38.0l-34.0 34.0l-34.0 -34.0l0 -38.0l34.0 34.0z" fill-rule="nonzero"></path><path stroke="#000000" stroke-width="2.0" stroke-linejoin="round" stroke-linecap="butt" d="m3752.5093 827.0l0 38.0l-34.0 34.0l-34.0 -34.0l0 -38.0l34.0 34.0z" fill-rule="nonzero"></path><path fill="#cfe2f3" d="m915.3884 1483.5013l38.0 0l34.0 34.0l-34.0 34.0l-38.0 0l34.0 -34.0z" fill-rule="nonzero"></path><path stroke="#000000" stroke-width="2.0" stroke-linejoin="round" stroke-linecap="butt" d="m915.3884 1483.5013l38.0 0l34.0 34.0l-34.0 34.0l-38.0 0l34.0 -34.0z" fill-rule="nonzero"></path><path fill="#cfe2f3" d="m483.66434 498.20676l-20.610687 31.91336l-46.995605 10.102417l-10.1067505 -47.01581l20.610687 -31.91336l10.1067505 47.01581z" fill-rule="nonzero"></path><path stroke="#000000" stroke-width="2.0" stroke-linejoin="round" stroke-linecap="butt" d="m483.66434 498.20676l-20.610687 31.91336l-46.995605 10.102417l-10.1067505 -47.01581l20.610687 -31.91336l10.1067505 47.01581z" fill-rule="nonzero"></path><path fill="#cfe2f3" d="m1486.389 585.19434l-20.631714 -31.920105l10.096313 -47.009033l47.006104 10.095642l20.631714 31.920105l-47.006104 -10.095642z" fill-rule="nonzero"></path><path stroke="#000000" stroke-width="2.0" stroke-linejoin="round" stroke-linecap="butt" d="m1486.389 585.19434l-20.631714 -31.920105l10.096313 -47.009033l47.006104 10.095642l20.631714 31.920105l-47.006104 -10.095642z" fill-rule="nonzero"></path></g></svg>

