<?xml version="1.0" standalone="yes"?>

<svg version="1.1" viewBox="0.0 0.0 299.0 368.0" fill="none" stroke="none" stroke-linecap="square" stroke-miterlimit="10" xmlns="http://www.w3.org/2000/svg" xmlns:xlink="http://www.w3.org/1999/xlink"><clipPath id="p.0"><path d="m0 0l299.0 0l0 368.0l-299.0 0l0 -368.0z" clip-rule="nonzero"></path></clipPath><g clip-path="url(#p.0)"><path fill="#000000" fill-opacity="0.0" d="m0 0l299.14172 0l0 368.57217l-299.14172 0z" fill-rule="nonzero"></path><path fill="#cfe2f3" d="m136.57217 13.716536l24.0 0l0 23.999998l-24.0 0z" fill-rule="nonzero"></path><path stroke="#000000" stroke-width="2.0" stroke-linejoin="round" stroke-linecap="butt" d="m136.57217 13.716536l24.0 0l0 23.999998l-24.0 0z" fill-rule="nonzero"></path><path fill="#cfe2f3" d="m136.57217 37.716534l24.0 0l0 24.0l-24.0 0z" fill-rule="nonzero"></path><path stroke="#000000" stroke-width="2.0" stroke-linejoin="round" stroke-linecap="butt" d="m136.57217 37.716534l24.0 0l0 24.0l-24.0 0z" fill-rule="nonzero"></path><path fill="#cfe2f3" d="m136.57217 61.716534l24.0 0l0 24.000004l-24.0 0z" fill-rule="nonzero"></path><path stroke="#000000" stroke-width="2.0" stroke-linejoin="round" stroke-linecap="butt" d="m136.57217 61.716534l24.0 0l0 24.000004l-24.0 0z" fill-rule="nonzero"></path><path fill="#cfe2f3" d="m136.57217 85.71654l24.0 0l0 24.0l-24.0 0z" fill-rule="nonzero"></path><path stroke="#000000" stroke-width="2.0" stroke-linejoin="round" stroke-linecap="butt" d="m136.57217 85.71654l24.0 0l0 24.0l-24.0 0z" fill-rule="nonzero"></path><path fill="#cfe2f3" d="m124.57218 181.71654l23.999992 0l0 24.0l-23.999992 0z" fill-rule="nonzero"></path><path stroke="#000000" stroke-width="2.0" stroke-linejoin="round" stroke-linecap="butt" d="m124.57218 181.71654l23.999992 0l0 24.0l-23.999992 0z" fill-rule="nonzero"></path><path fill="#cfe2f3" d="m124.57218 205.71654l23.999992 0l0 24.0l-23.999992 0z" fill-rule="nonzero"></path><path stroke="#000000" stroke-width="2.0" stroke-linejoin="round" stroke-linecap="butt" d="m124.57218 205.71654l23.999992 0l0 24.0l-23.999992 0z" fill-rule="nonzero"></path><path fill="#cfe2f3" d="m148.57217 181.71654l24.0 0l0 24.0l-24.0 0z" fill-rule="nonzero"></path><path stroke="#000000" stroke-width="2.0" stroke-linejoin="round" stroke-linecap="butt" d="m148.57217 181.71654l24.0 0l0 24.0l-24.0 0z" fill-rule="nonzero"></path><path fill="#cfe2f3" d="m148.57217 205.71654l24.0 0l0 24.0l-24.0 0z" fill-rule="nonzero"></path><path stroke="#000000" stroke-width="2.0" stroke-linejoin="round" stroke-linecap="butt" d="m148.57217 205.71654l24.0 0l0 24.0l-24.0 0z" fill-rule="nonzero"></path><path fill="#cfe2f3" d="m160.57217 325.71652l24.0 0l0 24.0l-24.0 0z" fill-rule="nonzero"></path><path stroke="#000000" stroke-width="2.0" stroke-linejoin="round" stroke-linecap="butt" d="m160.57217 325.71652l24.0 0l0 24.0l-24.0 0z" fill-rule="nonzero"></path><path fill="#cfe2f3" d="m112.57218 325.71652l23.999992 0l0 24.0l-23.999992 0z" fill-rule="nonzero"></path><path stroke="#000000" stroke-width="2.0" stroke-linejoin="round" stroke-linecap="butt" d="m112.57218 325.71652l23.999992 0l0 24.0l-23.999992 0z" fill-rule="nonzero"></path><path fill="#cfe2f3" d="m136.57217 301.71652l24.0 0l0 24.0l-24.0 0z" fill-rule="nonzero"></path><path stroke="#000000" stroke-width="2.0" stroke-linejoin="round" stroke-linecap="butt" d="m136.57217 301.71652l24.0 0l0 24.0l-24.0 0z" fill-rule="nonzero"></path><path fill="#cfe2f3" d="m136.57217 325.71652l24.0 0l0 24.0l-24.0 0z" fill-rule="nonzero"></path><path stroke="#000000" stroke-width="2.0" stroke-linejoin="round" stroke-linecap="butt" d="m136.57217 325.71652l24.0 0l0 24.0l-24.0 0z" fill-rule="nonzero"></path><path fill="#cfe2f3" d="m44.572178 277.71652l24.000004 0l0 24.0l-24.000004 0z" fill-rule="nonzero"></path><path stroke="#000000" stroke-width="2.0" stroke-linejoin="round" stroke-linecap="butt" d="m44.572178 277.71652l24.000004 0l0 24.0l-24.000004 0z" fill-rule="nonzero"></path><path fill="#cfe2f3" d="m20.572178 229.71654l24.0 0l0 24.0l-24.0 0z" fill-rule="nonzero"></path><path stroke="#000000" stroke-width="2.0" stroke-linejoin="round" stroke-linecap="butt" d="m20.572178 229.71654l24.0 0l0 24.0l-24.0 0z" fill-rule="nonzero"></path><path fill="#cfe2f3" d="m44.572178 229.71654l24.000004 0l0 24.0l-24.000004 0z" fill-rule="nonzero"></path><path stroke="#000000" stroke-width="2.0" stroke-linejoin="round" stroke-linecap="butt" d="m44.572178 229.71654l24.000004 0l0 24.0l-24.000004 0z" fill-rule="nonzero"></path><path fill="#cfe2f3" d="m44.572178 253.71654l24.000004 0l0 23.999985l-24.000004 0z" fill-rule="nonzero"></path><path stroke="#000000" stroke-width="2.0" stroke-linejoin="round" stroke-linecap="butt" d="m44.572178 253.71654l24.000004 0l0 23.999985l-24.000004 0z" fill-rule="nonzero"></path><path fill="#cfe2f3" d="m44.572178 157.71654l24.000004 0l0 24.0l-24.000004 0z" fill-rule="nonzero"></path><path stroke="#000000" stroke-width="2.0" stroke-linejoin="round" stroke-linecap="butt" d="m44.572178 157.71654l24.000004 0l0 24.0l-24.000004 0z" fill-rule="nonzero"></path><path fill="#cfe2f3" d="m20.572178 157.71654l24.0 0l0 24.0l-24.0 0z" fill-rule="nonzero"></path><path stroke="#000000" stroke-width="2.0" stroke-linejoin="round" stroke-linecap="butt" d="m20.572178 157.71654l24.0 0l0 24.0l-24.0 0z" fill-rule="nonzero"></path><path fill="#cfe2f3" d="m44.572178 109.71654l24.000004 0l0 24.0l-24.000004 0z" fill-rule="nonzero"></path><path stroke="#000000" stroke-width="2.0" stroke-linejoin="round" stroke-linecap="butt" d="m44.572178 109.71654l24.000004 0l0 24.0l-24.000004 0z" fill-rule="nonzero"></path><path fill="#cfe2f3" d="m44.572178 133.71654l24.000004 0l0 24.0l-24.000004 0z" fill-rule="nonzero"></path><path stroke="#000000" stroke-width="2.0" stroke-linejoin="round" stroke-linecap="butt" d="m44.572178 133.71654l24.000004 0l0 24.0l-24.000004 0z" fill-rule="nonzero"></path><path fill="#cfe2f3" d="m252.57217 157.71654l24.0 0l0 24.0l-24.0 0z" fill-rule="nonzero"></path><path stroke="#000000" stroke-width="2.0" stroke-linejoin="round" stroke-linecap="butt" d="m252.57217 157.71654l24.0 0l0 24.0l-24.0 0z" fill-rule="nonzero"></path><path fill="#cfe2f3" d="m228.57217 133.71654l24.0 0l0 24.0l-24.0 0z" fill-rule="nonzero"></path><path stroke="#000000" stroke-width="2.0" stroke-linejoin="round" stroke-linecap="butt" d="m228.57217 133.71654l24.0 0l0 24.0l-24.0 0z" fill-rule="nonzero"></path><path fill="#cfe2f3" d="m228.57217 109.71654l24.0 0l0 24.0l-24.0 0z" fill-rule="nonzero"></path><path stroke="#000000" stroke-width="2.0" stroke-linejoin="round" stroke-linecap="butt" d="m228.57217 109.71654l24.0 0l0 24.0l-24.0 0z" fill-rule="nonzero"></path><path fill="#cfe2f3" d="m252.57217 133.71654l24.0 0l0 24.0l-24.0 0z" fill-rule="nonzero"></path><path stroke="#000000" stroke-width="2.0" stroke-linejoin="round" stroke-linecap="butt" d="m252.57217 133.71654l24.0 0l0 24.0l-24.0 0z" fill-rule="nonzero"></path><path fill="#cfe2f3" d="m228.57217 277.71652l24.0 0l0 24.0l-24.0 0z" fill-rule="nonzero"></path><path stroke="#000000" stroke-width="2.0" stroke-linejoin="round" stroke-linecap="butt" d="m228.57217 277.71652l24.0 0l0 24.0l-24.0 0z" fill-rule="nonzero"></path><path fill="#cfe2f3" d="m228.57217 253.71654l24.0 0l0 23.999985l-24.0 0z" fill-rule="nonzero"></path><path stroke="#000000" stroke-width="2.0" stroke-linejoin="round" stroke-linecap="butt" d="m228.57217 253.71654l24.0 0l0 23.999985l-24.0 0z" fill-rule="nonzero"></path><path fill="#cfe2f3" d="m252.57217 229.71654l24.0 0l0 24.0l-24.0 0z" fill-rule="nonzero"></path><path stroke="#000000" stroke-width="2.0" stroke-linejoin="round" stroke-linecap="butt" d="m252.57217 229.71654l24.0 0l0 24.0l-24.0 0z" fill-rule="nonzero"></path><path fill="#cfe2f3" d="m252.57217 253.71654l24.0 0l0 23.999985l-24.0 0z" fill-rule="nonzero"></path><path stroke="#000000" stroke-width="2.0" stroke-linejoin="round" stroke-linecap="butt" d="m252.57217 253.71654l24.0 0l0 23.999985l-24.0 0z" fill-rule="nonzero"></path></g></svg>

