<?xml version="1.0" standalone="yes"?>

<svg version="1.1" viewBox="0.0 0.0 2153.0 719.0" fill="none" stroke="none" stroke-linecap="square" stroke-miterlimit="10" xmlns="http://www.w3.org/2000/svg" xmlns:xlink="http://www.w3.org/1999/xlink"><clipPath id="p.0"><path d="m0 0l2153.0 0l0 719.0l-2153.0 0l0 -719.0z" clip-rule="nonzero"></path></clipPath><g clip-path="url(#p.0)"><path fill="#000000" fill-opacity="0.0" d="m0 0l2153.3203 0l0 719.57745l-2153.3203 0z" fill-rule="nonzero"></path><path fill="#cfe2f3" d="m106.478935 268.94232l183.874 0l0 170.51968l-183.874 0z" fill-rule="nonzero"></path><path stroke="#000000" stroke-width="2.0" stroke-linejoin="round" stroke-linecap="butt" d="m106.478935 268.94232l183.874 0l0 170.51968l-183.874 0z" fill-rule="nonzero"></path><path fill="#cfe2f3" d="m127.52901 286.6497l141.77095 0l0 135.10434l-141.77095 0z" fill-rule="nonzero"></path><path stroke="#000000" stroke-width="2.0" stroke-linejoin="round" stroke-linecap="butt" d="m127.52901 286.6497l141.77095 0l0 135.10434l-141.77095 0z" fill-rule="nonzero"></path><path fill="#3d85c6" d="m158.4581 315.28357l79.912766 0l0 77.83658l-79.912766 0z" fill-rule="nonzero"></path><path stroke="#000000" stroke-width="2.0" stroke-linejoin="round" stroke-linecap="butt" d="m158.4581 315.28357l79.912766 0l0 77.83658l-79.912766 0z" fill-rule="nonzero"></path><path fill="#cfe2f3" d="m158.33902 315.52774l-30.810013 -28.878052l141.77324 0l-30.894745 28.783783z" fill-rule="nonzero"></path><path stroke="#000000" stroke-width="2.0" stroke-linejoin="round" stroke-linecap="butt" d="m158.33902 315.52774l-30.810013 -28.878052l141.77324 0l-30.894745 28.783783z" fill-rule="nonzero"></path><path fill="#cfe2f3" d="m158.33902 316.06686l-30.810013 -28.878052l0.08930969 134.55554l30.810013 -28.880463z" fill-rule="nonzero"></path><path stroke="#000000" stroke-width="2.0" stroke-linejoin="round" stroke-linecap="butt" d="m158.33902 316.06686l-30.810013 -28.878052l0.08930969 134.55554l30.810013 -28.880463z" fill-rule="nonzero"></path><path fill="#cfe2f3" d="m238.31819 392.5762l30.899307 28.974762l-141.59918 -0.070129395l30.810013 -28.880463z" fill-rule="nonzero"></path><path stroke="#000000" stroke-width="2.0" stroke-linejoin="round" stroke-linecap="butt" d="m238.31819 392.5762l30.899307 28.974762l-141.59918 -0.070129395l30.810013 -28.880463z" fill-rule="nonzero"></path><path fill="#cfe2f3" d="m238.31819 392.5762l30.899307 28.974762l-0.08929443 -134.80698l-30.810013 28.783752z" fill-rule="nonzero"></path><path stroke="#000000" stroke-width="2.0" stroke-linejoin="round" stroke-linecap="butt" d="m238.31819 392.5762l30.899307 28.974762l-0.08929443 -134.80698l-30.810013 28.783752z" fill-rule="nonzero"></path><path fill="#cfe2f3" d="m458.47894 268.94232l183.87402 0l0 170.51968l-183.87402 0z" fill-rule="nonzero"></path><path stroke="#000000" stroke-width="2.0" stroke-linejoin="round" stroke-linecap="butt" d="m458.47894 268.94232l183.87402 0l0 170.51968l-183.87402 0z" fill-rule="nonzero"></path><path fill="#cfe2f3" d="m479.52902 286.6497l141.7709 0l0 135.10434l-141.7709 0z" fill-rule="nonzero"></path><path stroke="#000000" stroke-width="2.0" stroke-linejoin="round" stroke-linecap="butt" d="m479.52902 286.6497l141.7709 0l0 135.10434l-141.7709 0z" fill-rule="nonzero"></path><path fill="#3d85c6" d="m510.4581 315.28357l79.91275 0l0 77.83658l-79.91275 0z" fill-rule="nonzero"></path><path stroke="#000000" stroke-width="2.0" stroke-linejoin="round" stroke-linecap="butt" d="m510.4581 315.28357l79.91275 0l0 77.83658l-79.91275 0z" fill-rule="nonzero"></path><path fill="#3d85c6" d="m510.33902 315.52774l-30.809998 -28.878052l141.77322 0l-30.894775 28.783783z" fill-rule="nonzero"></path><path stroke="#000000" stroke-width="2.0" stroke-linejoin="round" stroke-linecap="butt" d="m510.33902 315.52774l-30.809998 -28.878052l141.77322 0l-30.894775 28.783783z" fill-rule="nonzero"></path><path fill="#cfe2f3" d="m510.33902 316.06686l-30.809998 -28.878052l0.08929443 134.55554l30.810028 -28.880463z" fill-rule="nonzero"></path><path stroke="#000000" stroke-width="2.0" stroke-linejoin="round" stroke-linecap="butt" d="m510.33902 316.06686l-30.809998 -28.878052l0.08929443 134.55554l30.810028 -28.880463z" fill-rule="nonzero"></path><path fill="#cfe2f3" d="m590.3182 392.5762l30.899353 28.974762l-141.59921 -0.070129395l30.810028 -28.880463z" fill-rule="nonzero"></path><path stroke="#000000" stroke-width="2.0" stroke-linejoin="round" stroke-linecap="butt" d="m590.3182 392.5762l30.899353 28.974762l-141.59921 -0.070129395l30.810028 -28.880463z" fill-rule="nonzero"></path><path fill="#cfe2f3" d="m590.3182 392.5762l30.899353 28.974762l-0.08935547 -134.80698l-30.809998 28.783752z" fill-rule="nonzero"></path><path stroke="#000000" stroke-width="2.0" stroke-linejoin="round" stroke-linecap="butt" d="m590.3182 392.5762l30.899353 28.974762l-0.08935547 -134.80698l-30.809998 28.783752z" fill-rule="nonzero"></path><path fill="#000000" fill-opacity="0.0" d="m458.47894 354.20215l-168.126 0" fill-rule="nonzero"></path><path stroke="#000000" stroke-width="2.0" stroke-linejoin="round" stroke-linecap="butt" d="m458.47894 354.20215l-168.126 0" fill-rule="nonzero"></path><path fill="#000000" fill-opacity="0.0" d="m810.47894 141.9502l-168.12598 212.25195" fill-rule="nonzero"></path><path stroke="#000000" stroke-width="2.0" stroke-linejoin="round" stroke-linecap="butt" d="m810.47894 141.9502l-168.12598 212.25195" fill-rule="nonzero"></path><path fill="#cfe2f3" d="m810.47894 56.700848l183.87402 0l0 170.51968l-183.87402 0z" fill-rule="nonzero"></path><path stroke="#000000" stroke-width="2.0" stroke-linejoin="round" stroke-linecap="butt" d="m810.47894 56.700848l183.87402 0l0 170.51968l-183.87402 0z" fill-rule="nonzero"></path><path fill="#cfe2f3" d="m831.529 74.408226l141.77094 0l0 135.10434l-141.77094 0z" fill-rule="nonzero"></path><path stroke="#000000" stroke-width="2.0" stroke-linejoin="round" stroke-linecap="butt" d="m831.529 74.408226l141.77094 0l0 135.10434l-141.77094 0z" fill-rule="nonzero"></path><path fill="#3d85c6" d="m862.4581 103.04211l79.91272 0l0 77.83657l-79.91272 0z" fill-rule="nonzero"></path><path stroke="#000000" stroke-width="2.0" stroke-linejoin="round" stroke-linecap="butt" d="m862.4581 103.04211l79.91272 0l0 77.83657l-79.91272 0z" fill-rule="nonzero"></path><path fill="#3d85c6" d="m862.33905 103.28628l-30.810059 -28.878052l141.77325 0l-30.894775 28.783768z" fill-rule="nonzero"></path><path stroke="#000000" stroke-width="2.0" stroke-linejoin="round" stroke-linecap="butt" d="m862.33905 103.28628l-30.810059 -28.878052l141.77325 0l-30.894775 28.783768z" fill-rule="nonzero"></path><path fill="#cfe2f3" d="m862.33905 103.8254l-30.810059 -28.87806l0.08935547 134.55554l30.809998 -28.880463z" fill-rule="nonzero"></path><path stroke="#000000" stroke-width="2.0" stroke-linejoin="round" stroke-linecap="butt" d="m862.33905 103.8254l-30.810059 -28.87806l0.08935547 134.55554l30.809998 -28.880463z" fill-rule="nonzero"></path><path fill="#3d85c6" d="m942.3182 180.33472l30.899353 28.974762l-141.59918 -0.07009888l30.809998 -28.880478z" fill-rule="nonzero"></path><path stroke="#000000" stroke-width="2.0" stroke-linejoin="round" stroke-linecap="butt" d="m942.3182 180.33472l30.899353 28.974762l-141.59918 -0.07009888l30.809998 -28.880478z" fill-rule="nonzero"></path><path fill="#cfe2f3" d="m942.3182 180.33472l30.899353 28.974762l-0.08935547 -134.80698l-30.809998 28.783768z" fill-rule="nonzero"></path><path stroke="#000000" stroke-width="2.0" stroke-linejoin="round" stroke-linecap="butt" d="m942.3182 180.33472l30.899353 28.974762l-0.08935547 -134.80698l-30.809998 28.783768z" fill-rule="nonzero"></path><path fill="#000000" fill-opacity="0.0" d="m1162.4789 141.9607l-168.12592 0" fill-rule="nonzero"></path><path stroke="#000000" stroke-width="2.0" stroke-linejoin="round" stroke-linecap="butt" d="m1162.4789 141.9607l-168.12592 0" fill-rule="nonzero"></path><path fill="#cfe2f3" d="m1162.4789 56.700848l183.87402 0l0 170.51968l-183.87402 0z" fill-rule="nonzero"></path><path stroke="#000000" stroke-width="2.0" stroke-linejoin="round" stroke-linecap="butt" d="m1162.4789 56.700848l183.87402 0l0 170.51968l-183.87402 0z" fill-rule="nonzero"></path><path fill="#3d85c6" d="m1183.529 74.408226l141.77087 0l0 135.10434l-141.77087 0z" fill-rule="nonzero"></path><path stroke="#000000" stroke-width="2.0" stroke-linejoin="round" stroke-linecap="butt" d="m1183.529 74.408226l141.77087 0l0 135.10434l-141.77087 0z" fill-rule="nonzero"></path><path fill="#cfe2f3" d="m1214.4581 103.04211l79.91272 0l0 77.83657l-79.91272 0z" fill-rule="nonzero"></path><path stroke="#000000" stroke-width="2.0" stroke-linejoin="round" stroke-linecap="butt" d="m1214.4581 103.04211l79.91272 0l0 77.83657l-79.91272 0z" fill-rule="nonzero"></path><path fill="#3d85c6" d="m1214.339 103.28628l-30.809937 -28.878052l141.7732 0l-30.894775 28.783768z" fill-rule="nonzero"></path><path stroke="#000000" stroke-width="2.0" stroke-linejoin="round" stroke-linecap="butt" d="m1214.339 103.28628l-30.809937 -28.878052l141.7732 0l-30.894775 28.783768z" fill-rule="nonzero"></path><path fill="#3d85c6" d="m1214.339 103.8254l-30.809937 -28.87806l0.0892334 134.55554l30.810059 -28.880463z" fill-rule="nonzero"></path><path stroke="#000000" stroke-width="2.0" stroke-linejoin="round" stroke-linecap="butt" d="m1214.339 103.8254l-30.809937 -28.87806l0.0892334 134.55554l30.810059 -28.880463z" fill-rule="nonzero"></path><path fill="#3d85c6" d="m1294.3182 180.33472l30.899292 28.974762l-141.59924 -0.07009888l30.810059 -28.880478z" fill-rule="nonzero"></path><path stroke="#000000" stroke-width="2.0" stroke-linejoin="round" stroke-linecap="butt" d="m1294.3182 180.33472l30.899292 28.974762l-141.59924 -0.07009888l30.810059 -28.880478z" fill-rule="nonzero"></path><path fill="#3d85c6" d="m1294.3182 180.33472l30.899292 28.974762l-0.08935547 -134.80698l-30.809937 28.783768z" fill-rule="nonzero"></path><path stroke="#000000" stroke-width="2.0" stroke-linejoin="round" stroke-linecap="butt" d="m1294.3182 180.33472l30.899292 28.974762l-0.08935547 -134.80698l-30.809937 28.783768z" fill-rule="nonzero"></path><path fill="#cfe2f3" d="m1514.4789 268.94232l183.87402 0l0 170.51968l-183.87402 0z" fill-rule="nonzero"></path><path stroke="#000000" stroke-width="2.0" stroke-linejoin="round" stroke-linecap="butt" d="m1514.4789 268.94232l183.87402 0l0 170.51968l-183.87402 0z" fill-rule="nonzero"></path><path fill="#3d85c6" d="m1535.529 286.6497l141.77087 0l0 135.10434l-141.77087 0z" fill-rule="nonzero"></path><path stroke="#000000" stroke-width="2.0" stroke-linejoin="round" stroke-linecap="butt" d="m1535.529 286.6497l141.77087 0l0 135.10434l-141.77087 0z" fill-rule="nonzero"></path><path fill="#3d85c6" d="m1566.4581 315.28357l79.91272 0l0 77.83658l-79.91272 0z" fill-rule="nonzero"></path><path stroke="#000000" stroke-width="2.0" stroke-linejoin="round" stroke-linecap="butt" d="m1566.4581 315.28357l79.91272 0l0 77.83658l-79.91272 0z" fill-rule="nonzero"></path><path fill="#3d85c6" d="m1566.339 315.52774l-30.809937 -28.878052l141.7732 0l-30.894775 28.783783z" fill-rule="nonzero"></path><path stroke="#000000" stroke-width="2.0" stroke-linejoin="round" stroke-linecap="butt" d="m1566.339 315.52774l-30.809937 -28.878052l141.7732 0l-30.894775 28.783783z" fill-rule="nonzero"></path><path fill="#3d85c6" d="m1566.339 316.06686l-30.809937 -28.878052l0.0892334 134.55554l30.810059 -28.880463z" fill-rule="nonzero"></path><path stroke="#000000" stroke-width="2.0" stroke-linejoin="round" stroke-linecap="butt" d="m1566.339 316.06686l-30.809937 -28.878052l0.0892334 134.55554l30.810059 -28.880463z" fill-rule="nonzero"></path><path fill="#3d85c6" d="m1646.3182 392.5762l30.899292 28.974762l-141.59924 -0.070129395l30.810059 -28.880463z" fill-rule="nonzero"></path><path stroke="#000000" stroke-width="2.0" stroke-linejoin="round" stroke-linecap="butt" d="m1646.3182 392.5762l30.899292 28.974762l-141.59924 -0.070129395l30.810059 -28.880463z" fill-rule="nonzero"></path><path fill="#3d85c6" d="m1646.3182 392.5762l30.899292 28.974762l-0.08935547 -134.80698l-30.809937 28.783752z" fill-rule="nonzero"></path><path stroke="#000000" stroke-width="2.0" stroke-linejoin="round" stroke-linecap="butt" d="m1646.3182 392.5762l30.899292 28.974762l-0.08935547 -134.80698l-30.809937 28.783752z" fill-rule="nonzero"></path><path fill="#000000" fill-opacity="0.0" d="m1514.4789 354.20215l-168.12598 -212.25195" fill-rule="nonzero"></path><path stroke="#000000" stroke-width="2.0" stroke-linejoin="round" stroke-linecap="butt" d="m1514.4789 354.20215l-168.12598 -212.25195" fill-rule="nonzero"></path><path fill="#000000" fill-opacity="0.0" d="m1866.4789 354.20215l-168.12598 0" fill-rule="nonzero"></path><path stroke="#000000" stroke-width="2.0" stroke-linejoin="round" stroke-linecap="butt" d="m1866.4789 354.20215l-168.12598 0" fill-rule="nonzero"></path><path fill="#3d85c6" d="m1866.4789 268.94232l183.87415 0l0 170.51968l-183.87415 0z" fill-rule="nonzero"></path><path stroke="#000000" stroke-width="2.0" stroke-linejoin="round" stroke-linecap="butt" d="m1866.4789 268.94232l183.87415 0l0 170.51968l-183.87415 0z" fill-rule="nonzero"></path><path fill="#3d85c6" d="m1887.529 286.6497l141.77087 0l0 135.10434l-141.77087 0z" fill-rule="nonzero"></path><path stroke="#000000" stroke-width="2.0" stroke-linejoin="round" stroke-linecap="butt" d="m1887.529 286.6497l141.77087 0l0 135.10434l-141.77087 0z" fill-rule="nonzero"></path><path fill="#3d85c6" d="m1918.4581 315.28357l79.91272 0l0 77.83658l-79.91272 0z" fill-rule="nonzero"></path><path stroke="#000000" stroke-width="2.0" stroke-linejoin="round" stroke-linecap="butt" d="m1918.4581 315.28357l79.91272 0l0 77.83658l-79.91272 0z" fill-rule="nonzero"></path><path fill="#3d85c6" d="m1918.339 315.52774l-30.809937 -28.878052l141.7732 0l-30.894775 28.783783z" fill-rule="nonzero"></path><path stroke="#000000" stroke-width="2.0" stroke-linejoin="round" stroke-linecap="butt" d="m1918.339 315.52774l-30.809937 -28.878052l141.7732 0l-30.894775 28.783783z" fill-rule="nonzero"></path><path fill="#3d85c6" d="m1918.339 316.06686l-30.809937 -28.878052l0.0892334 134.55554l30.810059 -28.880463z" fill-rule="nonzero"></path><path stroke="#000000" stroke-width="2.0" stroke-linejoin="round" stroke-linecap="butt" d="m1918.339 316.06686l-30.809937 -28.878052l0.0892334 134.55554l30.810059 -28.880463z" fill-rule="nonzero"></path><path fill="#3d85c6" d="m1998.3182 392.5762l30.899292 28.974762l-141.59924 -0.070129395l30.810059 -28.880463z" fill-rule="nonzero"></path><path stroke="#000000" stroke-width="2.0" stroke-linejoin="round" stroke-linecap="butt" d="m1998.3182 392.5762l30.899292 28.974762l-141.59924 -0.070129395l30.810059 -28.880463z" fill-rule="nonzero"></path><path fill="#3d85c6" d="m1998.3182 392.5762l30.899292 28.974762l-0.08935547 -134.80698l-30.809937 28.783752z" fill-rule="nonzero"></path><path stroke="#000000" stroke-width="2.0" stroke-linejoin="round" stroke-linecap="butt" d="m1998.3182 392.5762l30.899292 28.974762l-0.08935547 -134.80698l-30.809937 28.783752z" fill-rule="nonzero"></path><path fill="#000000" fill-opacity="0.0" d="m810.47894 566.4541l-168.12598 -212.25195" fill-rule="nonzero"></path><path stroke="#000000" stroke-width="2.0" stroke-linejoin="round" stroke-linecap="butt" d="m810.47894 566.4541l-168.12598 -212.25195" fill-rule="nonzero"></path><path fill="#cfe2f3" d="m810.47894 481.18378l183.87402 0l0 170.51971l-183.87402 0z" fill-rule="nonzero"></path><path stroke="#000000" stroke-width="2.0" stroke-linejoin="round" stroke-linecap="butt" d="m810.47894 481.18378l183.87402 0l0 170.51971l-183.87402 0z" fill-rule="nonzero"></path><path fill="#cfe2f3" d="m831.529 498.89117l141.77094 0l0 135.10431l-141.77094 0z" fill-rule="nonzero"></path><path stroke="#000000" stroke-width="2.0" stroke-linejoin="round" stroke-linecap="butt" d="m831.529 498.89117l141.77094 0l0 135.10431l-141.77094 0z" fill-rule="nonzero"></path><path fill="#3d85c6" d="m862.4581 527.525l79.91272 0l0 77.83661l-79.91272 0z" fill-rule="nonzero"></path><path stroke="#000000" stroke-width="2.0" stroke-linejoin="round" stroke-linecap="butt" d="m862.4581 527.525l79.91272 0l0 77.83661l-79.91272 0z" fill-rule="nonzero"></path><path fill="#3d85c6" d="m862.33905 527.7692l-30.810059 -28.878052l141.77325 0l-30.894775 28.783752z" fill-rule="nonzero"></path><path stroke="#000000" stroke-width="2.0" stroke-linejoin="round" stroke-linecap="butt" d="m862.33905 527.7692l-30.810059 -28.878052l141.77325 0l-30.894775 28.783752z" fill-rule="nonzero"></path><path fill="#cfe2f3" d="m862.33905 528.30835l-30.810059 -28.878052l0.08935547 134.55554l30.809998 -28.880493z" fill-rule="nonzero"></path><path stroke="#000000" stroke-width="2.0" stroke-linejoin="round" stroke-linecap="butt" d="m862.33905 528.30835l-30.810059 -28.878052l0.08935547 134.55554l30.809998 -28.880493z" fill-rule="nonzero"></path><path fill="#cfe2f3" d="m942.3182 604.8177l30.899353 28.974731l-141.59918 -0.070129395l30.809998 -28.880432z" fill-rule="nonzero"></path><path stroke="#000000" stroke-width="2.0" stroke-linejoin="round" stroke-linecap="butt" d="m942.3182 604.8177l30.899353 28.974731l-141.59918 -0.070129395l30.809998 -28.880432z" fill-rule="nonzero"></path><path fill="#3d85c6" d="m942.3182 604.8177l30.899353 28.974731l-0.08935547 -134.80698l-30.809998 28.783783z" fill-rule="nonzero"></path><path stroke="#000000" stroke-width="2.0" stroke-linejoin="round" stroke-linecap="butt" d="m942.3182 604.8177l30.899353 28.974731l-0.08935547 -134.80698l-30.809998 28.783783z" fill-rule="nonzero"></path><path fill="#000000" fill-opacity="0.0" d="m1162.4789 566.4436l-168.12592 0" fill-rule="nonzero"></path><path stroke="#000000" stroke-width="2.0" stroke-linejoin="round" stroke-linecap="butt" d="m1162.4789 566.4436l-168.12592 0" fill-rule="nonzero"></path><path fill="#cfe2f3" d="m1162.4789 481.18378l183.87402 0l0 170.51971l-183.87402 0z" fill-rule="nonzero"></path><path stroke="#000000" stroke-width="2.0" stroke-linejoin="round" stroke-linecap="butt" d="m1162.4789 481.18378l183.87402 0l0 170.51971l-183.87402 0z" fill-rule="nonzero"></path><path fill="#3d85c6" d="m1183.529 498.89117l141.77087 0l0 135.10431l-141.77087 0z" fill-rule="nonzero"></path><path stroke="#000000" stroke-width="2.0" stroke-linejoin="round" stroke-linecap="butt" d="m1183.529 498.89117l141.77087 0l0 135.10431l-141.77087 0z" fill-rule="nonzero"></path><path fill="#3d85c6" d="m1214.4581 527.525l79.91272 0l0 77.83661l-79.91272 0z" fill-rule="nonzero"></path><path stroke="#000000" stroke-width="2.0" stroke-linejoin="round" stroke-linecap="butt" d="m1214.4581 527.525l79.91272 0l0 77.83661l-79.91272 0z" fill-rule="nonzero"></path><path fill="#3d85c6" d="m1214.339 527.7692l-30.809937 -28.878052l141.7732 0l-30.894775 28.783752z" fill-rule="nonzero"></path><path stroke="#000000" stroke-width="2.0" stroke-linejoin="round" stroke-linecap="butt" d="m1214.339 527.7692l-30.809937 -28.878052l141.7732 0l-30.894775 28.783752z" fill-rule="nonzero"></path><path fill="#cfe2f3" d="m1214.339 528.30835l-30.809937 -28.878052l0.0892334 134.55554l30.810059 -28.880493z" fill-rule="nonzero"></path><path stroke="#000000" stroke-width="2.0" stroke-linejoin="round" stroke-linecap="butt" d="m1214.339 528.30835l-30.809937 -28.878052l0.0892334 134.55554l30.810059 -28.880493z" fill-rule="nonzero"></path><path fill="#3d85c6" d="m1294.3182 604.8177l30.899292 28.974731l-141.59924 -0.070129395l30.810059 -28.880432z" fill-rule="nonzero"></path><path stroke="#000000" stroke-width="2.0" stroke-linejoin="round" stroke-linecap="butt" d="m1294.3182 604.8177l30.899292 28.974731l-141.59924 -0.070129395l30.810059 -28.880432z" fill-rule="nonzero"></path><path fill="#3d85c6" d="m1294.3182 604.8177l30.899292 28.974731l-0.08935547 -134.80698l-30.809937 28.783783z" fill-rule="nonzero"></path><path stroke="#000000" stroke-width="2.0" stroke-linejoin="round" stroke-linecap="butt" d="m1294.3182 604.8177l30.899292 28.974731l-0.08935547 -134.80698l-30.809937 28.783783z" fill-rule="nonzero"></path><path fill="#000000" fill-opacity="0.0" d="m1514.4789 354.20215l-168.12598 212.25195" fill-rule="nonzero"></path><path stroke="#000000" stroke-width="2.0" stroke-linejoin="round" stroke-linecap="butt" d="m1514.4789 354.20215l-168.12598 212.25195" fill-rule="nonzero"></path><path fill="#000000" fill-opacity="0.0" d="m1162.4789 566.4436l-168.12592 -424.4724" fill-rule="nonzero"></path><path stroke="#000000" stroke-width="2.0" stroke-linejoin="round" stroke-linecap="butt" d="m1162.4789 566.4436l-168.12592 -424.4724" fill-rule="nonzero"></path></g></svg>

