<?xml version="1.0" standalone="yes"?>

<svg version="1.1" viewBox="0.0 0.0 6496.0 2760.0" fill="none" stroke="none" stroke-linecap="square" stroke-miterlimit="10" xmlns="http://www.w3.org/2000/svg" xmlns:xlink="http://www.w3.org/1999/xlink"><clipPath id="p.0"><path d="m0 0l6496.0 0l0 2760.0l-6496.0 0l0 -2760.0z" clip-rule="nonzero"></path></clipPath><g clip-path="url(#p.0)"><path fill="#000000" fill-opacity="0.0" d="m0 0l6496.0 0l0 2760.0l-6496.0 0z" fill-rule="nonzero"></path><path fill="#cfe2f3" d="m438.0707 1155.6893l522.31494 -860.94495l522.3149 860.94495z" fill-rule="nonzero"></path><path stroke="#000000" stroke-width="2.0" stroke-linejoin="round" stroke-linecap="butt" d="m438.0707 1155.6893l522.31494 -860.94495l522.3149 860.94495z" fill-rule="nonzero"></path><path fill="#3d85c6" d="m1061.282 824.8051l-100.897644 166.33069l-100.897644 -166.33069z" fill-rule="nonzero"></path><path stroke="#000000" stroke-width="2.0" stroke-linejoin="round" stroke-linecap="butt" d="m1061.282 824.8051l-100.897644 166.33069l-100.897644 -166.33069z" fill-rule="nonzero"></path><path fill="#cfe2f3" d="m960.3832 991.8583l398.9922 103.17322l-297.83472 -269.21783z" fill-rule="nonzero"></path><path stroke="#000000" stroke-width="2.0" stroke-linejoin="round" stroke-linecap="butt" d="m960.3832 991.8583l398.9922 103.17322l-297.83472 -269.21783z" fill-rule="nonzero"></path><path fill="#cfe2f3" d="m556.958 1095.4357l802.82153 0.80578613l-398.18634 -103.979004z" fill-rule="nonzero"></path><path stroke="#000000" stroke-width="2.0" stroke-linejoin="round" stroke-linecap="butt" d="m556.958 1095.4357l802.82153 0.80578613l-398.18634 -103.979004z" fill-rule="nonzero"></path><path fill="#cfe2f3" d="m958.36743 436.09186l-401.40942 659.3438l303.47504 -270.02625z" fill-rule="nonzero"></path><path stroke="#000000" stroke-width="2.0" stroke-linejoin="round" stroke-linecap="butt" d="m958.36743 436.09186l-401.40942 659.3438l303.47504 -270.02625z" fill-rule="nonzero"></path><path fill="#cfe2f3" d="m860.0315 825.0079l-303.0735 270.83197l403.82678 -104.38318z" fill-rule="nonzero"></path><path stroke="#000000" stroke-width="2.0" stroke-linejoin="round" stroke-linecap="butt" d="m860.0315 825.0079l-303.0735 270.83197l403.82678 -104.38318z" fill-rule="nonzero"></path><path fill="#cfe2f3" d="m959.57745 435.68765l-98.33862 389.72177l200.30182 -0.19946289z" fill-rule="nonzero"></path><path stroke="#000000" stroke-width="2.0" stroke-linejoin="round" stroke-linecap="butt" d="m959.57745 435.68765l-98.33862 389.72177l200.30182 -0.19946289z" fill-rule="nonzero"></path><path fill="#cfe2f3" d="m959.57745 434.8819l101.963196 391.73755l296.62476 267.60626z" fill-rule="nonzero"></path><path stroke="#000000" stroke-width="2.0" stroke-linejoin="round" stroke-linecap="butt" d="m959.57745 434.8819l101.963196 391.73755l296.62476 267.60626z" fill-rule="nonzero"></path><path fill="#cfe2f3" d="m1958.0707 1155.6893l522.31506 -860.94495l522.31494 860.94495z" fill-rule="nonzero"></path><path stroke="#000000" stroke-width="2.0" stroke-linejoin="round" stroke-linecap="butt" d="m1958.0707 1155.6893l522.31506 -860.94495l522.31494 860.94495z" fill-rule="nonzero"></path><path fill="#3d85c6" d="m2581.282 824.8051l-100.897705 166.33069l-100.89746 -166.33069z" fill-rule="nonzero"></path><path stroke="#000000" stroke-width="2.0" stroke-linejoin="round" stroke-linecap="butt" d="m2581.282 824.8051l-100.897705 166.33069l-100.89746 -166.33069z" fill-rule="nonzero"></path><path fill="#cfe2f3" d="m2480.3833 991.8583l398.99194 103.17322l-297.83447 -269.21783z" fill-rule="nonzero"></path><path stroke="#000000" stroke-width="2.0" stroke-linejoin="round" stroke-linecap="butt" d="m2480.3833 991.8583l398.99194 103.17322l-297.83447 -269.21783z" fill-rule="nonzero"></path><path fill="#cfe2f3" d="m2076.958 1095.4357l802.82153 0.80578613l-398.18628 -103.979004z" fill-rule="nonzero"></path><path stroke="#000000" stroke-width="2.0" stroke-linejoin="round" stroke-linecap="butt" d="m2076.958 1095.4357l802.82153 0.80578613l-398.18628 -103.979004z" fill-rule="nonzero"></path><path fill="#cfe2f3" d="m2478.3674 436.09186l-401.40942 659.3438l303.4751 -270.02625z" fill-rule="nonzero"></path><path stroke="#000000" stroke-width="2.0" stroke-linejoin="round" stroke-linecap="butt" d="m2478.3674 436.09186l-401.40942 659.3438l303.4751 -270.02625z" fill-rule="nonzero"></path><path fill="#3d85c6" d="m2380.0315 825.0079l-303.0735 270.83197l403.82666 -104.38318z" fill-rule="nonzero"></path><path stroke="#000000" stroke-width="2.0" stroke-linejoin="round" stroke-linecap="butt" d="m2380.0315 825.0079l-303.0735 270.83197l403.82666 -104.38318z" fill-rule="nonzero"></path><path fill="#cfe2f3" d="m2479.5774 435.68765l-98.33862 389.72177l200.302 -0.19946289z" fill-rule="nonzero"></path><path stroke="#000000" stroke-width="2.0" stroke-linejoin="round" stroke-linecap="butt" d="m2479.5774 435.68765l-98.33862 389.72177l200.302 -0.19946289z" fill-rule="nonzero"></path><path fill="#cfe2f3" d="m2479.5774 434.8819l101.96338 391.73755l296.6245 267.60626z" fill-rule="nonzero"></path><path stroke="#000000" stroke-width="2.0" stroke-linejoin="round" stroke-linecap="butt" d="m2479.5774 434.8819l101.96338 391.73755l296.6245 267.60626z" fill-rule="nonzero"></path><path fill="#cfe2f3" d="m3478.0708 1155.6893l522.31494 -860.94495l522.31494 860.94495z" fill-rule="nonzero"></path><path stroke="#000000" stroke-width="2.0" stroke-linejoin="round" stroke-linecap="butt" d="m3478.0708 1155.6893l522.31494 -860.94495l522.31494 860.94495z" fill-rule="nonzero"></path><path fill="#3d85c6" d="m4101.282 824.8051l-100.89795 166.33069l-100.89746 -166.33069z" fill-rule="nonzero"></path><path stroke="#000000" stroke-width="2.0" stroke-linejoin="round" stroke-linecap="butt" d="m4101.282 824.8051l-100.89795 166.33069l-100.89746 -166.33069z" fill-rule="nonzero"></path><path fill="#cfe2f3" d="m4000.3833 991.8583l398.9922 103.17322l-297.83496 -269.21783z" fill-rule="nonzero"></path><path stroke="#000000" stroke-width="2.0" stroke-linejoin="round" stroke-linecap="butt" d="m4000.3833 991.8583l398.9922 103.17322l-297.83496 -269.21783z" fill-rule="nonzero"></path><path fill="#3d85c6" d="m3596.958 1095.4357l802.8213 0.80578613l-398.18604 -103.979004z" fill-rule="nonzero"></path><path stroke="#000000" stroke-width="2.0" stroke-linejoin="round" stroke-linecap="butt" d="m3596.958 1095.4357l802.8213 0.80578613l-398.18604 -103.979004z" fill-rule="nonzero"></path><path fill="#cfe2f3" d="m3998.3674 436.09186l-401.40942 659.3438l303.4751 -270.02625z" fill-rule="nonzero"></path><path stroke="#000000" stroke-width="2.0" stroke-linejoin="round" stroke-linecap="butt" d="m3998.3674 436.09186l-401.40942 659.3438l303.4751 -270.02625z" fill-rule="nonzero"></path><path fill="#3d85c6" d="m3900.0315 825.0079l-303.0735 270.83197l403.82666 -104.38318z" fill-rule="nonzero"></path><path stroke="#000000" stroke-width="2.0" stroke-linejoin="round" stroke-linecap="butt" d="m3900.0315 825.0079l-303.0735 270.83197l403.82666 -104.38318z" fill-rule="nonzero"></path><path fill="#cfe2f3" d="m3999.5774 435.68765l-98.33862 389.72177l200.30176 -0.19946289z" fill-rule="nonzero"></path><path stroke="#000000" stroke-width="2.0" stroke-linejoin="round" stroke-linecap="butt" d="m3999.5774 435.68765l-98.33862 389.72177l200.30176 -0.19946289z" fill-rule="nonzero"></path><path fill="#cfe2f3" d="m3999.5774 434.8819l101.963135 391.73755l296.625 267.60626z" fill-rule="nonzero"></path><path stroke="#000000" stroke-width="2.0" stroke-linejoin="round" stroke-linecap="butt" d="m3999.5774 434.8819l101.963135 391.73755l296.625 267.60626z" fill-rule="nonzero"></path><path fill="#cfe2f3" d="m4998.071 1155.6893l522.31494 -860.94495l522.31494 860.94495z" fill-rule="nonzero"></path><path stroke="#000000" stroke-width="2.0" stroke-linejoin="round" stroke-linecap="butt" d="m4998.071 1155.6893l522.31494 -860.94495l522.31494 860.94495z" fill-rule="nonzero"></path><path fill="#3d85c6" d="m5621.282 824.8051l-100.89795 166.33069l-100.89746 -166.33069z" fill-rule="nonzero"></path><path stroke="#000000" stroke-width="2.0" stroke-linejoin="round" stroke-linecap="butt" d="m5621.282 824.8051l-100.89795 166.33069l-100.89746 -166.33069z" fill-rule="nonzero"></path><path fill="#3d85c6" d="m5520.3833 991.8583l398.9922 103.17322l-297.83496 -269.21783z" fill-rule="nonzero"></path><path stroke="#000000" stroke-width="2.0" stroke-linejoin="round" stroke-linecap="butt" d="m5520.3833 991.8583l398.9922 103.17322l-297.83496 -269.21783z" fill-rule="nonzero"></path><path fill="#3d85c6" d="m5116.958 1095.4357l802.8213 0.80578613l-398.18604 -103.979004z" fill-rule="nonzero"></path><path stroke="#000000" stroke-width="2.0" stroke-linejoin="round" stroke-linecap="butt" d="m5116.958 1095.4357l802.8213 0.80578613l-398.18604 -103.979004z" fill-rule="nonzero"></path><path fill="#cfe2f3" d="m5518.3677 436.09186l-401.40967 659.3438l303.4751 -270.02625z" fill-rule="nonzero"></path><path stroke="#000000" stroke-width="2.0" stroke-linejoin="round" stroke-linecap="butt" d="m5518.3677 436.09186l-401.40967 659.3438l303.4751 -270.02625z" fill-rule="nonzero"></path><path fill="#3d85c6" d="m5420.0317 825.0079l-303.07373 270.83197l403.82666 -104.38318z" fill-rule="nonzero"></path><path stroke="#000000" stroke-width="2.0" stroke-linejoin="round" stroke-linecap="butt" d="m5420.0317 825.0079l-303.07373 270.83197l403.82666 -104.38318z" fill-rule="nonzero"></path><path fill="#cfe2f3" d="m5519.5776 435.68765l-98.33887 389.72177l200.30176 -0.19946289z" fill-rule="nonzero"></path><path stroke="#000000" stroke-width="2.0" stroke-linejoin="round" stroke-linecap="butt" d="m5519.5776 435.68765l-98.33887 389.72177l200.30176 -0.19946289z" fill-rule="nonzero"></path><path fill="#cfe2f3" d="m5519.5776 434.8819l101.96289 391.73755l296.625 267.60626z" fill-rule="nonzero"></path><path stroke="#000000" stroke-width="2.0" stroke-linejoin="round" stroke-linecap="butt" d="m5519.5776 434.8819l101.96289 391.73755l296.625 267.60626z" fill-rule="nonzero"></path><path fill="#cfe2f3" d="m438.0707 2427.6892l522.31494 -860.9448l522.315 860.9448z" fill-rule="nonzero"></path><path stroke="#000000" stroke-width="2.0" stroke-linejoin="round" stroke-linecap="butt" d="m438.0707 2427.6892l522.31494 -860.9448l522.315 860.9448z" fill-rule="nonzero"></path><path fill="#3d85c6" d="m1061.282 2096.8052l-100.897644 166.33057l-100.897644 -166.33057z" fill-rule="nonzero"></path><path stroke="#000000" stroke-width="2.0" stroke-linejoin="round" stroke-linecap="butt" d="m1061.282 2096.8052l-100.897644 166.33057l-100.897644 -166.33057z" fill-rule="nonzero"></path><path fill="#3d85c6" d="m960.3832 2263.8582l398.9922 103.17334l-297.83472 -269.21777z" fill-rule="nonzero"></path><path stroke="#000000" stroke-width="2.0" stroke-linejoin="round" stroke-linecap="butt" d="m960.3832 2263.8582l398.9922 103.17334l-297.83472 -269.21777z" fill-rule="nonzero"></path><path fill="#3d85c6" d="m556.958 2367.4358l802.82153 0.80566406l-398.18634 -103.979004z" fill-rule="nonzero"></path><path stroke="#000000" stroke-width="2.0" stroke-linejoin="round" stroke-linecap="butt" d="m556.958 2367.4358l802.82153 0.80566406l-398.18634 -103.979004z" fill-rule="nonzero"></path><path fill="#3d85c6" d="m958.36743 1708.0919l-401.40942 659.3439l303.47504 -270.02637z" fill-rule="nonzero"></path><path stroke="#000000" stroke-width="2.0" stroke-linejoin="round" stroke-linecap="butt" d="m958.36743 1708.0919l-401.40942 659.3439l303.47504 -270.02637z" fill-rule="nonzero"></path><path fill="#3d85c6" d="m860.0315 2097.0078l-303.0735 270.83203l403.82678 -104.38306z" fill-rule="nonzero"></path><path stroke="#000000" stroke-width="2.0" stroke-linejoin="round" stroke-linecap="butt" d="m860.0315 2097.0078l-303.0735 270.83203l403.82678 -104.38306z" fill-rule="nonzero"></path><path fill="#cfe2f3" d="m959.57745 1707.6876l-98.33862 389.7218l200.30182 -0.19946289z" fill-rule="nonzero"></path><path stroke="#000000" stroke-width="2.0" stroke-linejoin="round" stroke-linecap="butt" d="m959.57745 1707.6876l-98.33862 389.7218l200.30182 -0.19946289z" fill-rule="nonzero"></path><path fill="#cfe2f3" d="m959.57745 1706.8818l101.963196 391.73755l296.62476 267.60645z" fill-rule="nonzero"></path><path stroke="#000000" stroke-width="2.0" stroke-linejoin="round" stroke-linecap="butt" d="m959.57745 1706.8818l101.963196 391.73755l296.62476 267.60645z" fill-rule="nonzero"></path><path fill="#cfe2f3" d="m1958.0707 2427.6892l522.31506 -860.9448l522.31494 860.9448z" fill-rule="nonzero"></path><path stroke="#000000" stroke-width="2.0" stroke-linejoin="round" stroke-linecap="butt" d="m1958.0707 2427.6892l522.31506 -860.9448l522.31494 860.9448z" fill-rule="nonzero"></path><path fill="#3d85c6" d="m2581.282 2096.8052l-100.897705 166.33057l-100.89746 -166.33057z" fill-rule="nonzero"></path><path stroke="#000000" stroke-width="2.0" stroke-linejoin="round" stroke-linecap="butt" d="m2581.282 2096.8052l-100.897705 166.33057l-100.89746 -166.33057z" fill-rule="nonzero"></path><path fill="#3d85c6" d="m2480.3833 2263.8582l398.99194 103.17334l-297.83447 -269.21777z" fill-rule="nonzero"></path><path stroke="#000000" stroke-width="2.0" stroke-linejoin="round" stroke-linecap="butt" d="m2480.3833 2263.8582l398.99194 103.17334l-297.83447 -269.21777z" fill-rule="nonzero"></path><path fill="#3d85c6" d="m2076.958 2367.4358l802.82153 0.80566406l-398.18628 -103.979004z" fill-rule="nonzero"></path><path stroke="#000000" stroke-width="2.0" stroke-linejoin="round" stroke-linecap="butt" d="m2076.958 2367.4358l802.82153 0.80566406l-398.18628 -103.979004z" fill-rule="nonzero"></path><path fill="#3d85c6" d="m2478.3674 1708.0919l-401.40942 659.3439l303.4751 -270.02637z" fill-rule="nonzero"></path><path stroke="#000000" stroke-width="2.0" stroke-linejoin="round" stroke-linecap="butt" d="m2478.3674 1708.0919l-401.40942 659.3439l303.4751 -270.02637z" fill-rule="nonzero"></path><path fill="#3d85c6" d="m2380.0315 2097.0078l-303.0735 270.83203l403.82666 -104.38306z" fill-rule="nonzero"></path><path stroke="#000000" stroke-width="2.0" stroke-linejoin="round" stroke-linecap="butt" d="m2380.0315 2097.0078l-303.0735 270.83203l403.82666 -104.38306z" fill-rule="nonzero"></path><path fill="#cfe2f3" d="m2479.5774 1707.6876l-98.33862 389.7218l200.302 -0.19946289z" fill-rule="nonzero"></path><path stroke="#000000" stroke-width="2.0" stroke-linejoin="round" stroke-linecap="butt" d="m2479.5774 1707.6876l-98.33862 389.7218l200.302 -0.19946289z" fill-rule="nonzero"></path><path fill="#3d85c6" d="m2479.5774 1706.8818l101.96338 391.73755l296.6245 267.60645z" fill-rule="nonzero"></path><path stroke="#000000" stroke-width="2.0" stroke-linejoin="round" stroke-linecap="butt" d="m2479.5774 1706.8818l101.96338 391.73755l296.6245 267.60645z" fill-rule="nonzero"></path><path fill="#cfe2f3" d="m3478.0708 2427.6892l522.31494 -860.9448l522.31494 860.9448z" fill-rule="nonzero"></path><path stroke="#000000" stroke-width="2.0" stroke-linejoin="round" stroke-linecap="butt" d="m3478.0708 2427.6892l522.31494 -860.9448l522.31494 860.9448z" fill-rule="nonzero"></path><path fill="#3d85c6" d="m4101.282 2096.8052l-100.89795 166.33057l-100.89746 -166.33057z" fill-rule="nonzero"></path><path stroke="#000000" stroke-width="2.0" stroke-linejoin="round" stroke-linecap="butt" d="m4101.282 2096.8052l-100.89795 166.33057l-100.89746 -166.33057z" fill-rule="nonzero"></path><path fill="#3d85c6" d="m4000.3833 2263.8582l398.9922 103.17334l-297.83496 -269.21777z" fill-rule="nonzero"></path><path stroke="#000000" stroke-width="2.0" stroke-linejoin="round" stroke-linecap="butt" d="m4000.3833 2263.8582l398.9922 103.17334l-297.83496 -269.21777z" fill-rule="nonzero"></path><path fill="#3d85c6" d="m3596.958 2367.4358l802.8213 0.80566406l-398.18604 -103.979004z" fill-rule="nonzero"></path><path stroke="#000000" stroke-width="2.0" stroke-linejoin="round" stroke-linecap="butt" d="m3596.958 2367.4358l802.8213 0.80566406l-398.18604 -103.979004z" fill-rule="nonzero"></path><path fill="#3d85c6" d="m3998.3674 1708.0919l-401.40942 659.3439l303.4751 -270.02637z" fill-rule="nonzero"></path><path stroke="#000000" stroke-width="2.0" stroke-linejoin="round" stroke-linecap="butt" d="m3998.3674 1708.0919l-401.40942 659.3439l303.4751 -270.02637z" fill-rule="nonzero"></path><path fill="#3d85c6" d="m3900.0315 2097.0078l-303.0735 270.83203l403.82666 -104.38306z" fill-rule="nonzero"></path><path stroke="#000000" stroke-width="2.0" stroke-linejoin="round" stroke-linecap="butt" d="m3900.0315 2097.0078l-303.0735 270.83203l403.82666 -104.38306z" fill-rule="nonzero"></path><path fill="#3d85c6" d="m3999.5774 1707.6876l-98.33862 389.7218l200.30176 -0.19946289z" fill-rule="nonzero"></path><path stroke="#000000" stroke-width="2.0" stroke-linejoin="round" stroke-linecap="butt" d="m3999.5774 1707.6876l-98.33862 389.7218l200.30176 -0.19946289z" fill-rule="nonzero"></path><path fill="#3d85c6" d="m3999.5774 1706.8818l101.963135 391.73755l296.625 267.60645z" fill-rule="nonzero"></path><path stroke="#000000" stroke-width="2.0" stroke-linejoin="round" stroke-linecap="butt" d="m3999.5774 1706.8818l101.963135 391.73755l296.625 267.60645z" fill-rule="nonzero"></path><path fill="#3d85c6" d="m4998.071 2427.6892l522.31494 -860.9448l522.31494 860.9448z" fill-rule="nonzero"></path><path stroke="#000000" stroke-width="2.0" stroke-linejoin="round" stroke-linecap="butt" d="m4998.071 2427.6892l522.31494 -860.9448l522.31494 860.9448z" fill-rule="nonzero"></path><path fill="#3d85c6" d="m5621.282 2096.8052l-100.89795 166.33057l-100.89746 -166.33057z" fill-rule="nonzero"></path><path stroke="#000000" stroke-width="2.0" stroke-linejoin="round" stroke-linecap="butt" d="m5621.282 2096.8052l-100.89795 166.33057l-100.89746 -166.33057z" fill-rule="nonzero"></path><path fill="#3d85c6" d="m5520.3833 2263.8582l398.9922 103.17334l-297.83496 -269.21777z" fill-rule="nonzero"></path><path stroke="#000000" stroke-width="2.0" stroke-linejoin="round" stroke-linecap="butt" d="m5520.3833 2263.8582l398.9922 103.17334l-297.83496 -269.21777z" fill-rule="nonzero"></path><path fill="#3d85c6" d="m5116.958 2367.4358l802.8213 0.80566406l-398.18604 -103.979004z" fill-rule="nonzero"></path><path stroke="#000000" stroke-width="2.0" stroke-linejoin="round" stroke-linecap="butt" d="m5116.958 2367.4358l802.8213 0.80566406l-398.18604 -103.979004z" fill-rule="nonzero"></path><path fill="#3d85c6" d="m5518.3677 1708.0919l-401.40967 659.3439l303.4751 -270.02637z" fill-rule="nonzero"></path><path stroke="#000000" stroke-width="2.0" stroke-linejoin="round" stroke-linecap="butt" d="m5518.3677 1708.0919l-401.40967 659.3439l303.4751 -270.02637z" fill-rule="nonzero"></path><path fill="#3d85c6" d="m5420.0317 2097.0078l-303.07373 270.83203l403.82666 -104.38306z" fill-rule="nonzero"></path><path stroke="#000000" stroke-width="2.0" stroke-linejoin="round" stroke-linecap="butt" d="m5420.0317 2097.0078l-303.07373 270.83203l403.82666 -104.38306z" fill-rule="nonzero"></path><path fill="#3d85c6" d="m5519.5776 1707.6876l-98.33887 389.7218l200.30176 -0.19946289z" fill-rule="nonzero"></path><path stroke="#000000" stroke-width="2.0" stroke-linejoin="round" stroke-linecap="butt" d="m5519.5776 1707.6876l-98.33887 389.7218l200.30176 -0.19946289z" fill-rule="nonzero"></path><path fill="#3d85c6" d="m5519.5776 1706.8818l101.96289 391.73755l296.625 267.60645z" fill-rule="nonzero"></path><path stroke="#000000" stroke-width="2.0" stroke-linejoin="round" stroke-linecap="butt" d="m5519.5776 1706.8818l101.96289 391.73755l296.625 267.60645z" fill-rule="nonzero"></path></g></svg>

